<?xml version="1.0" encoding="UTF-8"?>
<svg id="Layer_1" data-name="Layer 1" xmlns="http://www.w3.org/2000/svg" viewBox="0 0 368.52 378.66">
  <defs>
    <style>
      .cls-1 {
        fill: #cfcfce;
      }

      .cls-2 {
        fill: #2d2d2c;
      }

      .cls-3 {
        fill: #353635;
      }

      .cls-4 {
        fill: #020202;
      }

      .cls-5 {
        fill: #c3c3c3;
      }

      .cls-6 {
        fill: #cfd0d0;
      }

      .cls-7 {
        fill: #2a2a2a;
      }

      .cls-8 {
        fill: #181818;
      }

      .cls-9 {
        fill: #b5b5b5;
      }

      .cls-10 {
        fill: #484848;
      }

      .cls-11 {
        fill: #010101;
      }
    </style>
  </defs>
  <path class="cls-11" d="M276.22,124.75c-.13,12.76-.02,25.53-.47,38.29-.12,3.33,.51,6.75-.01,10-1.06,6.54-2.13,8.54-9.07,10.64-15.44,4.65-31.28,6.54-47.3,7.64-15.75,1.08-31.52,1.54-47.28,1.08-18.52-.54-37.05-1.36-55.31-4.96-5.73-1.13-11.35-2.76-16.93-4.44-4.86-1.46-5.95-3.6-5.87-8.66,.12-7.74-.14-15.49-.21-23.24-.05-6.28-.06-12.56-.08-18.84-.41-3.04-.4-6.12-.47-9.15-.27-11.87-.21-23.75-.06-35.63,.07-5.1,3.44-7.92,7.82-9.6,5.03-1.93,10.27-3.19,15.54-4.32,9.72-2.08,19.57-3.06,29.48-3.76,17.22-1.22,34.46-1.32,51.71-1.17,22.84,.2,45.47,2.21,67.62,8.14,2.11,.57,4.13,1.28,5.97,2.48,3.54,2.31,5.32,5.57,5.49,9.81,.22,5.18-.52,10.32-.42,15.49,.11,5.72,.61,11.43,.41,17.17-.04,1.05,.02,2.1-.56,3.05Z"/>
  <path class="cls-7" d="M276.22,124.75c-.01-.14-.05-.28-.04-.42,.16-7.04-.33-14.07-.44-21.11-.06-4.32,.36-8.62,.48-12.94,.19-7.21-4.14-11.1-9.75-12.55-10.07-2.61-20.25-4.73-30.59-6.03-6.13-.77-12.27-1.3-18.43-1.73-4.4-.31-8.78-.02-13.16-.34-9.97-.73-19.95-.39-29.92-.34-8.42,.04-16.85,.3-25.25,.84-13.43,.87-26.83,2.17-39.86,5.83-2.88,.81-5.79,1.56-8.56,2.67-3.95,1.57-7.1,4.82-7.02,10.05,.21,13.69,.09,27.38,.1,41.07,0,.84-.06,1.67-.09,2.51-.63-1.97-.18-3.99-.27-5.98-.04-.84-.19-1.36-1.07-1.75-9.72-4.27-19.41-8.58-29.11-12.88-.11-.05-.27,0-.43,0-.53,1.24,.23,2.63-.46,3.84-.8-.7-.62-1.66-.62-2.54-.02-13.83-.02-27.65,0-41.48,0-.89-.13-1.83,.74-2.69,.92,1.37,2.06,1.09,3.39,.56,24.49-9.66,49.12-18.96,74.03-27.49,14.14-4.84,28.19-9.92,42.32-14.76,1.06-.36,2.1-.78,3.2-.97,2.3,.07,4.29,1.22,6.36,1.98,10.17,3.72,20.29,7.57,30.5,11.18,25.36,8.96,50.5,18.52,75.78,27.69,17.8,6.46,35.5,13.18,53.21,19.85,.78,.29,1.61,.53,2.07,1.32-5.33,3.13-10.92,5.76-16.46,8.47-8.8,4.31-17.59,8.62-26.48,12.73-11.34,5.25-22.77,10.3-34.16,15.43Z"/>
  <path class="cls-5" d="M300.46,312.37c-1.8,.06-2.34,1.27-2.51,2.78-.3,2.69-.5,5.39-.87,8.07-.38,2.78-1.32,3.55-4.17,3.45-4.12-.15-8.05-1.44-12.05-2.28-12.02-2.51-24.04-4.97-36.22-6.59-7.72-1.03-15.43-2.01-23.23-2.06-1.1,0-2.21-.27-3.31-.37-1.3-.12-2.16,.4-2.39,1.75-1.29-.35-1.58-1.54-1.89-2.55-.99-3.27-1.84-6.58-2.19-9.99,.45-1.76,1.75-2.99,2.81-4.34,2.72-3.46,5.55-6.89,7.13-11.02,5.73-14.95,2.45-34.62-14.25-45.52-1.2-.79-2.62-1.38-3.27-2.83-.02-2.26-1.09-4.49-.15-6.76,8.3,.06,16.56-.8,24.81-1.45,6.63-.52,13.25-1.45,19.86-2.27,11.31-1.4,22.5-3.43,33.68-5.59,3.74-.72,7.42-1.87,11.31-1.7,2.6,.11,4.14,1.33,4.34,3.86,.14,1.79,.16,3.61-.15,5.42-.34,1.99-.13,3.89,1.89,5.05,.38,.72,.25,1.5,.25,2.26-.01,22.73,0,45.46-.02,68.19,0,1.55,.21,3.04,.6,4.52Z"/>
  <path class="cls-5" d="M159.1,315.78c-6.6,.22-13.15,1-19.72,1.54-6.3,.52-12.55,1.39-18.8,2.27-6.04,.85-12.05,1.95-18.03,3.12-5.99,1.17-11.93,2.58-17.91,3.8-1.21,.25-2.52,.25-3.75,.09-2.62-.34-3.7-2.25-3.95-6.01-.12-1.82,.79-3.52,.24-5.38-.36-1.2-.77-2.22-1.89-2.84-.32-.58-.26-1.21-.26-1.84,.03-16.01,0-32.02,.01-48.03,0-.83-.02-1.67,.21-2.49,.21-.7,.69-1.21,1.25-1.62,5-3.67,5.96-8.79,5.13-14.5-.8-5.5-2.5-10.85-2.98-16.41-.15-1.75-.68-3.58,.48-5.23,3.44,1.13,7.04,1.5,10.58,2.05,9.93,1.55,19.8,3.4,29.67,5.31,7.22,1.39,14.48,2.44,21.8,3.21,9.35,.97,18.71,1.46,28.09,1.64,1.08,2.45,.54,4.97,.38,7.48-.38,1.01-1.31,1.41-2.14,1.9-10.1,5.94-15.11,15.21-16.99,26.38-1.68,9.98,1.66,18.72,7.22,26.81,1.31,1.9,2.7,3.74,4.22,5.48,.62,.7,1.08,1.46,1.07,2.43-.33,2.98-1.15,5.84-2.23,8.62-.34,.88-.61,1.88-1.69,2.22Z"/>
  <path class="cls-11" d="M79.12,222.25c-.4,5.77,1.08,11.28,2.23,16.84,.58,2.78,1.06,5.56,1.1,8.44,.06,5.38-2.27,9.31-6.74,12.1-4.34,2.55-8.85,4.67-13.86,5.53-2.24-.07-4.54,.61-6.7-.52-4.7-.44-9.12-1.79-13.28-4.05-7.87-4.27-10.03-8.74-8.42-17.5,2.77-15.07,4.95-30.23,7.09-45.4,1.38-9.77,2.55-19.59,6.46-28.81,1.95-4.59,1.58-9.74,3.09-14.46,.95-2.98,1.72-6.01,2.62-9.01,1.56-5.17,1.85-10.39,.66-15.67-.31-1.37-.38-2.76-.39-4.15-.29-4.11-.16-8.23-.1-12.34,.08-5.99-.71-11.96-.44-17.96,.21-4.74,.61-9.47,.43-14.22-.15-3.8-.76-7.57-.42-10.88-.07-.79-.51-.41-.25-.53,.09-.04,.14,0,.15,.13,.36,3.06-.92,5.21-3.6,6.65-3.16,1.7-6.66,2.49-9.99,3.75-6.53,2.47-13.03,5-19.52,7.56-.9,.36-1.79,.84-2.81,.4-2.86-3.99-2.08-8.14,2.34-9.4,8.91-2.53,17.2-6.71,26.08-9.25,1.73-.49,3.53-1.04,5.29-1.05,1.53,0,1.6-1.6,2.83-1.84,1.69-.34,3.34-.94,4.99-1.48,13.33-4.38,26.31-9.72,39.46-14.6,13.8-5.12,27.53-10.41,41.35-15.45,14.01-5.11,28.11-9.98,42.16-14.98,1.59-.57,3.09-.48,4.62,.12,1,2.07,.99,4.14,0,6.21-6.56,2.31-13.13,4.61-19.69,6.92-7.55,2.65-15.08,5.36-22.65,7.96-20.46,7.03-40.83,14.29-60.95,22.27-5.82,2.31-11.72,4.41-17.52,6.76-1.49,.61-2.19,.6-2.42-1.12-.03,.33-.07,.65-.07,.98,0,14.73-.01,29.46,0,44.2,0,.35,.06,.69,.09,1.04,.09,5.65-.52,11.27-.57,16.92-.06,6.28,1.66,12.26,2.36,18.41,.76,6.69,2.47,13.05,5.72,19.03,2.13,3.92,2.51,8.4,2.76,12.75,.41,7.05,2.08,13.9,2.92,20.87,.7,5.8,1.29,11.62,3.06,17.23,.17,.53,.35,1.05,.53,1.58Z"/>
  <path class="cls-11" d="M159.1,315.78c2.01-3.37,2.68-7.16,3.47-10.91,.88-1.37,1.86-.47,2.69-.02,5.51,2.95,11.31,5.06,17.53,5.86,8.83,1.14,17.17-.47,25.02-4.69,1.28-.69,2.37-2,4.1-1.56,.74,3.19,1.42,6.41,2.27,9.57,.29,1.09,.62,2.25,1.52,3.08,2.69,10.27,5.37,20.54,8.05,30.82,.17,.65,.8,1.45,.2,1.93-.72,.57-1.68,.37-2.56-.03-1.74-.79-3.14-2.05-4.63-3.19-.83-.64-1.62-1.33-2.47-1.93-3.73-2.62-6.88-1.94-9.24,2.02-1.39,2.34-2.23,4.92-3.23,7.44-.63,1.58-1.02,3.31-2.24,4.74-3.77-12.61-7.5-25.11-11.28-37.75-.99,1.19-1.09,2.61-1.47,3.89-3.12,10.37-6.18,20.75-9.31,31.12-.18,.61-.09,1.68-.87,1.7-.51,.01-1.18-.73-1.53-1.29-.65-1.05-1.17-2.2-1.67-3.34-2.23-5.06-6.23-7.94-10.83-7.72-2.07,.1-3.9,.95-5.65,1.97-1.97,1.15-3.94,2.31-6.2,3.65,.28-4.33,1.23-8.2,2.31-12.04,1.77-6.27,4.2-12.36,5.42-18.79,.28-1.5,.75-2.97,.61-4.53Z"/>
  <path class="cls-8" d="M185.56,26.46c0-2.07,0-4.14,0-6.21,1.15-.58,2.21,.18,3.16,.47,5.26,1.56,10.48,3.27,15.65,5.11,6.06,2.16,12.04,4.52,18.06,6.76,5.54,2.06,11.09,4.1,16.65,6.13,8.13,2.97,16.27,5.92,24.41,8.86,7.79,2.81,15.59,5.61,23.34,8.54,9.26,3.5,18.64,6.68,27.96,10.03,9.62,3.46,19.22,6.97,28.85,10.4,2.59,.92,5.3,1.55,7.77,2.78,4.11,2.05,4.75,5.08,1.9,8.79-9.97-3.73-19.94-7.47-29.92-11.18-8.74-3.26-17.49-6.49-26.24-9.72-12.73-4.7-25.47-9.41-38.2-14.1-9.8-3.61-19.57-7.29-29.42-10.75-14.12-4.96-28.14-10.19-42.17-15.38-.59-.22-1.2-.35-1.8-.52Z"/>
  <path class="cls-9" d="M300.46,312.37c-.86-.42-1.29-.97-1.29-2.06,.04-23.63,.03-47.26,.03-70.89,0-.71,.02-1.39,.43-2.01,3.23-1.09,6.41-1.89,9.44,.66,1.78,1.49,2.17,3.45,2.34,5.55,1.46,2.32,1.16,4.99,1.39,7.52,.99,10.69,1.06,21.42,.88,32.15-.11,6.75-.75,13.48-1.31,20.21-.07,.86-.37,1.62-.94,2.28,.19,4.41-2.4,6.99-6.99,6.72-1.32-.08-2.65-.08-3.97-.11Z"/>
  <path class="cls-9" d="M62.29,264.6c4.05-.67,7.62-2.64,11.31-4.27,.68-.3,1.32-.73,2.12-.7,0,16.7,0,33.39,0,50.09,0,.9,.14,1.83-.42,2.64-1.52-.02-2.97,.68-4.52,.38-3.38-.66-5.51-2.67-6.48-5.95-.23-.79-.49-1.57-.73-2.36-.51-.55-.61-1.23-.65-1.94-.72-11.55-1.63-23.1-1.28-34.69,.03-1.1-.14-2.26,.66-3.2Z"/>
  <path class="cls-2" d="M16.44,88.16c7.32-2.82,14.64-5.66,21.98-8.45,2.21-.84,4.45-1.58,6.7-2.31,4.19-1.36,7.54-3.41,7.27-8.65,.82,7.63,1.69,15.16,.76,22.75-.14,1.17-.07,2.37-.07,3.55-.03,10.18-.06,20.36-.08,30.54-.74-4.43-.17-8.89-.32-13.33-.07-2.09,.68-4.59-.23-6.15-.83-1.42-3.4-1.84-5.23-2.66-9.77-4.38-19.59-8.66-28.87-14.05-.65-.38-1.27-.83-1.91-1.24Z"/>
  <path class="cls-1" d="M311.42,305.77c1.65-13.77,1.95-27.6,1.54-41.43-.2-6.91-.67-13.84-1.56-20.72,.12,.07,.24,.16,.37,.2,5.7,1.63,6.11,2.4,6.77,8.43,.9,8.22,1.67,16.46,1.52,24.71-.14,7.89-.56,15.81-2.31,23.56-.91,4.01-2.27,5.06-6.33,5.25Z"/>
  <path class="cls-6" d="M62.29,264.6c0,6.56-.22,13.13,.09,19.68,.31,6.72,1.09,13.42,1.18,20.16-5.45,.59-5.51-1.81-6.72-7.29-2.37-10.75-1.48-21.65-1.68-32.5,2.38-.26,4.76-.2,7.14-.04Z"/>
  <path class="cls-4" d="M203.9,234.09c.46,2.33,.5,4.69,.52,7.05-.74,.53-1.49,.19-2.19-.06-9-3.19-18.05-2.79-27.13-.35-.91,.25-1.87,.74-2.75-.11-.56-2.08-.83-4.15,.23-6.16,.76-.05,1.52-.14,2.27-.15,9.68-.08,19.36-.15,29.04-.22Z"/>
  <path class="cls-10" d="M172.58,234.46c0,2.08,0,4.16,0,6.24-.57,1.77-1.4,2.17-3.46,1.65,.04-2.63,.09-5.26,.13-7.89,1.1-.21,2.21-.15,3.31,0Z"/>
  <path class="cls-3" d="M169.13,242.35c1.26-.32,2.75-.18,3.46-1.65,3.66-.72,7.24-1.72,10.98-2.18,6.2-.76,12.17-.16,18.06,1.75,.92,.3,1.85,.58,2.78,.86,7.81,4.75,14.46,10.69,17.57,19.52,4.59,13.05,4.06,25.62-4.87,36.99-1.77,2.25-3.47,4.54-5.2,6.82-3.71,1.87-7.28,4.03-11.3,5.26-9.3,2.85-18.48,2.48-27.6-.83-2.95-1.07-5.83-2.26-8.53-3.87-.6-.36-1.23-.74-1.91-.15,.17-1.08-.7-1.61-1.26-2.27-5.31-6.32-9.49-13.2-11.21-21.44-3.05-14.59,5.61-32.39,19.02-38.81Z"/>
  <path class="cls-11" d="M188.14,303.53c-9,.08-16.7-3.4-23.28-9.22-4.68-4.14-6.8-9.69-6.98-15.98-.15-5.34,.41-10.52,2.49-15.52,2.52-6.05,6.5-10.5,12.63-13.17,5.24-2.28,10.58-4.07,16.28-3.83,8.25,.34,15.12,3.74,20.38,10.27,2.69,3.34,5,6.86,6.43,10.92,2.78,7.92,1.13,15.31-2.73,22.46-4.46,8.25-11.7,12.4-20.61,14.04-1.48,.27-3.06,.04-4.6,.04Z"/>
</svg>