<?xml version="1.0" standalone="no"?>
<!DOCTYPE svg PUBLIC "-//W3C//DTD SVG 20010904//EN"
 "http://www.w3.org/TR/2001/REC-SVG-20010904/DTD/svg10.dtd">
<svg version="1.0" xmlns="http://www.w3.org/2000/svg"
 width="9462.000000pt" height="2796.000000pt" viewBox="0 0 9462.000000 2796.000000"
 preserveAspectRatio="xMidYMid meet">

<g transform="translate(0.000000,2796.000000) scale(0.100000,-0.100000)"
fill="#000000" stroke="none">
<path d="M39510 13980 l0 -6200 210 0 210 0 0 6200 0 6200 -210 0 -210 0 0
-6200z"/>
<path d="M24640 19226 c-295 -63 -480 -251 -505 -515 -8 -80 13 -192 52 -271
35 -72 157 -194 250 -249 40 -24 137 -69 216 -101 80 -32 173 -73 208 -91 87
-46 162 -119 196 -187 24 -49 27 -68 27 -147 0 -71 -4 -100 -21 -137 -46 -102
-155 -183 -281 -209 -82 -17 -277 -6 -377 21 -44 12 -117 39 -162 60 -46 21
-84 36 -87 32 -2 -4 -16 -50 -31 -102 -15 -52 -30 -101 -32 -108 -7 -16 120
-75 219 -101 130 -34 231 -44 372 -38 153 6 254 30 365 84 101 50 215 161 260
253 105 216 70 485 -84 642 -93 97 -200 160 -397 239 -222 88 -342 170 -389
266 -34 72 -33 189 3 259 34 65 104 127 177 156 50 20 73 23 206 23 148 -1
151 -1 255 -38 58 -21 111 -39 119 -40 9 -1 25 31 47 98 19 54 34 103 34 108
0 13 -100 55 -186 78 -102 27 -356 35 -454 15z"/>
<path d="M31910 19225 c-391 -78 -664 -359 -761 -784 -28 -122 -36 -373 -16
-506 66 -426 315 -726 687 -827 73 -20 108 -23 250 -23 120 1 183 5 232 18
336 84 565 299 679 636 40 118 59 225 66 376 15 344 -81 639 -275 846 -176
188 -401 280 -677 278 -66 -1 -149 -7 -185 -14z m325 -226 c336 -73 562 -486
517 -948 -37 -371 -206 -626 -477 -717 -65 -21 -99 -26 -180 -27 -119 -1 -186
13 -281 59 -164 80 -296 252 -359 470 -100 344 -21 767 185 986 37 40 92 88
122 106 138 82 303 107 473 71z"/>
<path d="M29000 19215 c-63 -7 -130 -16 -147 -19 l-33 -8 0 -1039 0 -1039 135
0 135 0 0 455 0 455 138 0 c172 0 251 -13 325 -52 68 -36 106 -79 147 -163 30
-61 35 -79 114 -400 24 -99 54 -206 66 -237 l21 -58 145 0 145 0 -15 28 c-21
40 -68 208 -126 447 -37 154 -61 232 -91 294 -48 98 -118 174 -194 211 l-49
24 54 24 c79 34 174 106 221 165 85 106 119 211 119 358 0 168 -49 288 -157
389 -100 94 -218 144 -398 170 -95 13 -414 11 -555 -5z m546 -218 c135 -37
233 -120 270 -229 27 -78 25 -215 -5 -290 -32 -82 -97 -150 -184 -193 -96 -47
-148 -55 -358 -55 l-179 0 0 384 0 385 58 6 c31 3 66 8 77 10 43 8 273 -5 321
-18z"/>
<path d="M34280 19216 c-69 -7 -147 -16 -173 -20 l-47 -7 0 -1038 0 -1038 53
-7 c124 -14 534 -19 652 -6 201 20 415 83 545 160 242 142 400 386 457 705 20
112 22 361 4 465 -38 216 -112 360 -256 505 -146 146 -273 212 -505 262 -101
22 -145 25 -360 28 -154 3 -291 -1 -370 -9z m658 -235 c345 -87 534 -327 558
-706 8 -125 -9 -289 -42 -403 -40 -137 -96 -234 -189 -328 -70 -70 -97 -89
-186 -132 -115 -56 -181 -76 -309 -91 -95 -12 -270 -14 -372 -4 l-68 6 0 833
0 833 58 6 c31 3 64 8 72 10 8 2 101 2 205 0 152 -2 207 -7 273 -24z"/>
<path d="M18166 18228 c-37 -541 -70 -1013 -73 -1050 l-6 -68 131 0 131 0 5
53 c9 84 64 1020 76 1287 6 135 13 297 16 360 l7 115 33 -125 c60 -227 111
-389 331 -1037 l217 -643 105 0 106 0 189 523 c258 710 315 871 385 1097 34
106 62 195 64 196 1 1 3 -82 5 -184 4 -256 55 -1272 78 -1564 l6 -78 135 0
135 0 -6 73 c-7 77 -126 1982 -126 2011 0 15 -17 16 -177 14 l-177 -3 -183
-495 c-185 -500 -316 -884 -373 -1085 -17 -60 -33 -117 -36 -125 -3 -8 -21 41
-40 110 -67 245 -148 493 -342 1043 l-196 557 -176 0 -175 0 -69 -982z"/>
<path d="M20660 18160 l0 -1050 135 0 135 0 0 1050 0 1050 -135 0 -135 0 0
-1050z"/>
<path d="M21400 18160 l0 -1050 131 0 132 0 -7 768 c-3 422 -9 819 -12 882
l-7 115 70 -135 c108 -210 203 -369 610 -1020 l379 -605 142 -3 142 -3 0 1051
0 1050 -130 0 -130 0 0 -642 c0 -568 8 -915 25 -1058 5 -40 -4 -27 -73 110
-115 225 -207 378 -612 1018 l-362 572 -149 0 -149 0 0 -1050z"/>
<path d="M23460 18160 l0 -1050 135 0 135 0 0 1050 0 1050 -135 0 -135 0 0
-1050z"/>
<path d="M25490 19095 l0 -115 320 0 320 0 0 -935 0 -935 140 0 140 0 0 935 0
935 320 0 320 0 0 115 0 115 -780 0 -780 0 0 -115z"/>
<path d="M27290 18160 l0 -1050 590 0 590 0 0 115 0 115 -455 0 -455 0 0 375
0 375 408 2 407 3 3 113 3 112 -411 0 -410 0 0 330 0 330 433 2 432 3 3 113 3
112 -571 0 -570 0 0 -1050z"/>
<path d="M30500 18160 l0 -1050 135 0 135 0 0 1050 0 1050 -135 0 -135 0 0
-1050z"/>
<path d="M36140 18160 l0 -1050 590 0 590 0 0 115 0 115 -455 0 -455 0 0 375
0 375 408 2 407 3 3 113 3 112 -411 0 -410 0 0 330 0 330 433 2 432 3 3 113 3
112 -571 0 -570 0 0 -1050z"/>
<path d="M59545 17949 c-603 -88 -986 -625 -985 -1382 1 -445 132 -817 375
-1062 206 -208 481 -309 790 -291 564 33 934 398 1046 1031 33 183 33 533 1
706 -81 442 -302 765 -625 914 -171 79 -408 112 -602 84z m247 -390 c191 -40
349 -206 434 -457 43 -127 61 -218 74 -376 11 -143 1 -336 -26 -476 -60 -318
-213 -545 -421 -623 -48 -18 -79 -22 -173 -21 -132 0 -186 16 -290 86 -152
101 -272 331 -315 603 -52 331 -9 697 110 935 129 257 357 381 607 329z"/>
<path d="M71534 17945 c-490 -76 -832 -452 -941 -1035 -21 -114 -29 -451 -14
-578 16 -127 45 -253 88 -376 143 -411 440 -672 833 -731 428 -65 837 106
1063 446 139 210 214 455 239 781 32 428 -69 837 -274 1109 -227 301 -600 446
-994 384z m281 -390 c247 -65 422 -323 479 -708 20 -134 20 -378 1 -516 -66
-458 -292 -731 -605 -731 -278 0 -490 206 -581 565 -37 147 -53 326 -46 495
23 493 208 825 500 896 72 17 182 17 252 -1z"/>
<path d="M57383 17940 c-616 -65 -1039 -437 -1163 -1023 -106 -500 20 -1051
306 -1341 239 -241 532 -350 949 -350 232 0 425 28 658 95 l107 32 0 683 0
684 -432 -2 -433 -3 0 -185 0 -185 208 -3 207 -2 0 -345 0 -344 -37 -10 c-79
-22 -210 -34 -313 -28 -418 25 -686 297 -749 760 -25 181 -8 439 39 592 30 96
99 227 159 301 158 195 433 298 746 279 133 -8 286 -37 368 -70 33 -14 62 -23
64 -21 3 2 24 81 48 176 24 94 47 180 50 190 5 16 -7 23 -91 50 -190 61 -491
91 -691 70z"/>
<path d="M61551 17930 c-123 -10 -340 -38 -353 -46 -4 -3 -8 -594 -8 -1314 l0
-1309 33 -6 c145 -25 620 -34 808 -14 312 31 527 116 672 263 142 144 208 309
208 516 0 215 -76 385 -229 513 -54 46 -222 137 -252 137 -8 0 -21 4 -28 8 -8
6 18 23 75 52 107 54 221 162 271 257 91 173 94 378 7 562 -27 57 -54 93 -113
151 -116 113 -256 180 -457 215 -108 20 -466 28 -634 15z m525 -364 c75 -20
151 -64 195 -114 53 -61 74 -127 74 -237 -1 -117 -32 -192 -111 -264 -101 -93
-189 -119 -421 -128 l-163 -6 0 376 0 376 43 5 c90 12 126 14 227 10 58 -2
128 -10 156 -18z m-1 -1111 c151 -42 273 -140 315 -253 45 -120 36 -274 -23
-385 -55 -104 -170 -182 -312 -212 -70 -15 -357 -21 -389 -9 -14 5 -16 54 -16
446 l0 440 183 -5 c126 -3 200 -10 242 -22z"/>
<path d="M66546 17930 c-150 -12 -369 -40 -379 -49 -4 -4 -6 -596 -5 -1317 l3
-1309 233 -3 232 -2 0 550 0 550 123 0 c210 0 297 -27 380 -120 65 -72 102
-171 157 -420 59 -262 92 -393 123 -485 l24 -70 243 -3 c228 -2 242 -1 235 15
-22 50 -91 305 -140 518 -71 305 -87 361 -137 465 -32 66 -57 101 -112 156
-39 38 -91 80 -116 91 l-45 21 39 17 c119 50 270 184 333 296 18 30 44 90 59
134 26 74 28 92 29 230 0 130 -3 160 -23 225 -56 176 -155 302 -307 390 -70
40 -212 86 -325 105 -113 19 -464 27 -624 15z m531 -378 c188 -60 283 -195
283 -405 0 -123 -41 -229 -120 -308 -100 -100 -193 -129 -432 -136 l-178 -5 0
430 0 431 43 5 c23 3 56 8 72 10 73 10 271 -3 332 -22z"/>
<path d="M74315 17929 c-124 -9 -334 -35 -360 -45 -13 -5 -15 -165 -15 -1309
0 -730 4 -1306 9 -1309 42 -27 647 -46 830 -27 699 73 1088 423 1198 1077 25
148 25 507 1 639 -63 336 -194 565 -421 736 -272 205 -658 279 -1242 238z
m490 -369 c300 -34 517 -191 621 -450 117 -288 105 -767 -26 -1057 -146 -322
-458 -480 -884 -448 l-96 7 0 968 0 969 53 5 c156 17 219 18 332 6z"/>
<path d="M63310 16585 l0 -1335 235 0 235 0 0 1335 0 1335 -235 0 -235 0 0
-1335z"/>
<path d="M64300 16585 l0 -1335 735 0 735 0 0 200 0 200 -500 0 -500 0 0 395
0 395 448 2 447 3 0 190 0 190 -447 3 -448 2 0 345 0 345 473 2 472 3 0 195 0
195 -707 3 -708 2 0 -1335z"/>
<path d="M68255 17908 c-3 -7 -4 -607 -3 -1333 l3 -1320 215 0 215 0 3 375 c3
346 -13 1386 -23 1595 -6 104 -15 117 88 -125 97 -227 258 -544 620 -1220
l335 -625 236 -3 236 -2 0 1335 0 1335 -216 0 -217 0 6 -737 c3 -406 11 -808
16 -893 6 -85 13 -207 16 -270 l6 -115 -59 140 c-142 334 -407 846 -929 1800
l-38 70 -253 3 c-197 2 -254 0 -257 -10z"/>
<path d="M76385 17908 c-3 -7 -4 -607 -3 -1333 l3 -1320 735 0 735 0 0 195 0
195 -502 3 -503 2 0 395 0 395 450 0 450 0 0 195 0 195 -450 0 -450 0 0 345 0
345 473 2 472 3 3 198 2 197 -705 0 c-555 0 -707 -3 -710 -12z"/>
<path d="M34004 16663 c-49 -71 -110 -159 -136 -197 -26 -38 -48 -73 -48 -78
0 -4 89 -8 198 -8 l197 0 205 205 205 205 -267 0 -267 0 -87 -127z"/>
<path d="M27033 16279 c-381 -58 -681 -251 -848 -545 -179 -313 -201 -763 -55
-1106 89 -208 273 -396 484 -494 185 -85 372 -118 636 -111 190 5 306 21 420
57 103 32 98 12 56 233 l-38 194 -61 -19 c-165 -51 -451 -62 -591 -23 -208 58
-368 209 -430 403 -86 273 -43 582 107 767 90 111 226 191 376 221 124 24 342
15 469 -20 51 -14 101 -30 111 -36 16 -8 22 8 65 173 26 100 49 191 52 202 4
18 -4 24 -58 43 -132 47 -242 63 -443 67 -104 2 -218 0 -252 -6z"/>
<path d="M31093 16279 c-381 -58 -681 -251 -848 -545 -179 -313 -201 -763 -55
-1106 89 -208 273 -396 484 -494 185 -85 372 -118 636 -111 190 5 306 21 420
57 103 32 98 12 56 233 l-38 194 -61 -19 c-165 -51 -451 -62 -591 -23 -208 58
-368 209 -430 403 -86 273 -43 582 107 767 90 111 226 191 376 221 124 24 342
15 469 -20 51 -14 101 -30 111 -36 16 -8 22 8 65 173 26 100 49 191 52 202 4
18 -4 24 -58 43 -132 47 -242 63 -443 67 -104 2 -218 0 -252 -6z"/>
<path d="M33854 16275 c-369 -65 -667 -320 -797 -681 -54 -149 -72 -264 -72
-454 0 -130 5 -197 18 -260 94 -441 347 -726 736 -827 118 -31 323 -41 454
-24 495 66 823 402 903 926 19 122 13 393 -11 500 -94 421 -351 702 -734 802
-121 32 -368 41 -497 18z m359 -415 c159 -60 284 -224 337 -442 39 -159 37
-387 -5 -554 -26 -101 -100 -238 -165 -304 -183 -188 -485 -187 -670 1 -146
148 -221 423 -192 702 23 215 81 363 187 476 107 113 207 154 360 147 61 -2
109 -11 148 -26z"/>
<path d="M21908 16270 c-54 -4 -143 -13 -198 -20 l-100 -12 0 -1088 0 -1088
48 -6 c201 -27 590 -34 773 -15 581 59 924 296 1069 738 49 150 63 268 57 474
-5 197 -16 259 -76 412 -101 261 -345 468 -652 554 -163 45 -242 53 -539 56
-157 2 -329 0 -382 -5z m620 -395 c45 -9 115 -34 168 -60 246 -120 366 -393
325 -745 -15 -130 -34 -201 -83 -299 -79 -162 -221 -273 -411 -321 -93 -23
-258 -35 -350 -26 l-67 8 0 723 0 724 33 4 c87 11 313 6 385 -8z"/>
<path d="M19860 15155 l0 -1105 705 0 705 0 0 205 0 205 -455 0 -455 0 0 260
0 260 408 2 407 3 3 203 2 202 -410 0 -410 0 0 230 0 230 435 0 435 0 0 205 0
205 -685 0 -685 0 0 -1105z"/>
<path d="M23893 15523 c3 -705 4 -742 24 -828 77 -333 239 -533 508 -625 170
-59 459 -66 649 -16 350 91 549 331 611 736 12 76 15 230 15 783 l0 687 -249
0 -250 0 -4 -717 c-4 -777 -4 -777 -60 -905 -71 -159 -240 -243 -420 -208
-121 23 -201 87 -257 205 -62 130 -62 141 -67 918 l-5 707 -249 0 -250 0 4
-737z"/>
<path d="M28301 15168 c-184 -601 -336 -1099 -339 -1105 -3 -10 52 -13 257
-13 l260 0 17 56 c9 31 44 158 78 283 l63 226 316 3 315 2 11 -32 c5 -18 31
-103 56 -188 26 -85 60 -199 76 -252 l30 -98 270 0 c213 0 270 3 267 13 -3 6
-157 504 -344 1105 l-339 1092 -330 0 -330 0 -334 -1092z m688 547 c23 -88 78
-283 122 -433 45 -150 79 -275 76 -278 -2 -2 -110 -3 -239 -2 l-235 3 58 205
c67 236 106 386 144 553 15 65 28 117 30 115 2 -2 22 -75 44 -163z"/>
<path d="M32150 15155 l0 -1105 250 0 250 0 0 1105 0 1105 -250 0 -250 0 0
-1105z"/>
<path d="M35440 15155 l0 -1105 231 0 232 0 -7 778 c-3 427 -9 795 -12 817 -9
57 5 37 55 -80 83 -192 254 -523 528 -1017 l275 -498 264 0 264 0 0 1105 0
1105 -231 0 -231 0 5 -627 c4 -440 10 -673 20 -778 9 -82 14 -151 13 -152 -1
-2 -29 59 -61 135 -100 237 -232 492 -499 965 l-259 457 -293 0 -294 0 0
-1105z"/>
<path d="M73217 13913 c-14 -21 -95 -148 -182 -283 -86 -134 -160 -250 -162
-257 -4 -10 63 -13 328 -13 l334 1 210 221 c116 121 241 254 278 294 l69 74
-426 0 -426 0 -23 -37z"/>
<path d="M63491 13239 c-700 -79 -1220 -466 -1417 -1054 -148 -443 -120 -972
73 -1355 204 -405 564 -666 1053 -764 306 -61 665 -60 985 5 98 20 243 64 257
77 5 6 -86 551 -107 638 l-5 21 -57 -19 c-155 -51 -481 -81 -648 -59 -134 18
-199 37 -311 91 -222 107 -369 306 -426 575 -25 120 -27 345 -3 470 52 277
199 481 428 594 124 62 235 90 387 98 181 9 430 -28 579 -87 30 -11 55 -19 57
-18 2 2 39 150 83 328 71 291 78 326 64 337 -40 31 -237 84 -406 109 -125 18
-472 26 -586 13z"/>
<path d="M56150 12845 l0 -355 400 0 400 0 0 -1210 0 -1210 420 0 420 0 0
1210 0 1210 405 0 405 0 0 355 0 355 -1225 0 -1225 0 0 -355z"/>
<path d="M58930 12243 c0 -576 4 -994 10 -1048 85 -761 485 -1144 1225 -1172
734 -28 1217 299 1370 927 54 222 55 252 55 1291 l0 959 -420 0 -420 0 0 -948
c0 -1106 -3 -1146 -87 -1320 -84 -173 -224 -250 -435 -240 -88 4 -106 9 -172
42 -154 76 -243 232 -276 487 -5 43 -10 477 -10 1027 l0 952 -420 0 -420 0 0
-957z"/>
<path d="M64844 13186 c-3 -8 -4 -448 -1 -977 4 -1022 4 -1024 53 -1249 114
-518 437 -831 949 -916 133 -22 351 -29 490 -15 704 69 1084 459 1164 1193 7
61 11 444 11 1038 l0 940 -420 0 -419 0 -4 -997 c-3 -980 -4 -1000 -25 -1093
-44 -195 -147 -339 -279 -391 -49 -20 -77 -23 -183 -23 -108 -1 -133 2 -183
22 -107 43 -204 156 -253 294 -49 137 -47 109 -53 1178 l-6 1005 -418 3 c-351
2 -418 0 -423 -12z"/>
<path d="M68156 13178 c-3 -13 -46 -693 -96 -1513 -50 -819 -93 -1514 -96
-1542 l-6 -53 386 0 c301 0 387 3 390 13 8 23 80 1778 97 2337 l1 35 9 -35 c5
-19 29 -147 55 -285 64 -346 121 -614 214 -1005 44 -184 115 -481 158 -660
l78 -325 329 -3 330 -2 169 592 c277 969 313 1099 395 1418 l78 305 7 -450 c7
-428 39 -1551 52 -1812 l6 -123 404 0 404 0 0 43 c0 71 -151 3061 -155 3075
-4 10 -119 12 -552 10 l-548 -3 -93 -325 c-162 -569 -228 -815 -320 -1205 -50
-209 -93 -395 -97 -412 -7 -36 -25 -45 -25 -14 0 25 -82 442 -120 615 -17 72
-96 404 -177 739 l-147 607 -563 0 -563 0 -4 -22z"/>
<path d="M72663 13184 c-3 -8 -207 -711 -453 -1562 l-448 -1547 431 -3 c236
-1 432 0 435 3 3 2 44 163 91 357 l87 353 404 0 404 0 92 -335 c51 -184 95
-345 99 -357 l5 -23 450 0 c373 0 450 2 450 14 0 15 -917 3093 -926 3107 -3 5
-255 9 -560 9 -493 0 -555 -2 -561 -16z m537 -608 c0 -5 132 -528 220 -872 39
-149 70 -274 70 -278 0 -3 -129 -6 -286 -6 -267 0 -285 1 -280 18 29 93 164
685 248 1090 6 28 15 52 19 52 5 0 9 -2 9 -4z"/>
<path d="M75060 11635 l0 -1565 385 0 385 0 0 623 c0 577 -10 1103 -26 1410
-4 71 -3 127 2 127 5 0 27 -44 48 -98 122 -302 371 -811 879 -1797 l134 -260
442 -3 441 -2 0 1565 0 1565 -382 -2 -383 -3 1 -605 c1 -333 6 -702 13 -820
12 -225 38 -559 46 -597 3 -13 2 -23 -2 -23 -5 0 -25 46 -47 103 -143 376
-278 660 -754 1577 l-189 365 -497 3 -496 2 0 -1565z"/>
<path d="M26320 12389 l0 -281 -46 41 c-87 76 -237 101 -365 62 -211 -66 -331
-272 -316 -544 14 -270 170 -452 398 -465 134 -8 283 57 329 142 13 24 15 25
21 9 4 -10 8 -44 8 -75 l1 -58 116 0 117 0 -7 92 c-3 50 -6 376 -6 725 l0 633
-125 0 -125 0 0 -281z m-108 -388 c28 -18 57 -48 74 -77 26 -44 29 -58 32
-171 3 -75 0 -141 -7 -170 -28 -111 -106 -175 -214 -176 -103 0 -170 42 -218
140 -21 43 -24 61 -24 168 0 100 4 127 21 165 49 105 115 149 225 150 55 0 72
-4 111 -29z"/>
<path d="M30020 12389 l0 -281 -46 41 c-87 76 -237 101 -365 62 -211 -66 -331
-272 -316 -544 14 -270 170 -452 398 -465 134 -8 283 57 329 142 13 24 15 25
21 9 4 -10 8 -44 8 -75 l1 -58 116 0 117 0 -7 92 c-3 50 -6 376 -6 725 l0 633
-125 0 -125 0 0 -281z m-108 -388 c28 -18 57 -48 74 -77 26 -44 29 -58 32
-171 3 -75 0 -141 -7 -170 -28 -111 -106 -175 -214 -176 -103 0 -170 42 -218
140 -21 43 -24 61 -24 168 0 100 4 127 21 165 49 105 115 149 225 150 55 0 72
-4 111 -29z"/>
<path d="M23335 12523 c-38 -65 -77 -133 -88 -150 l-19 -33 90 0 89 0 114 137
c63 75 118 142 122 150 7 11 -15 13 -115 13 l-124 0 -69 -117z"/>
<path d="M35505 12523 c-38 -65 -77 -133 -88 -150 l-19 -33 90 0 89 0 114 137
c63 75 118 142 122 150 7 11 -15 13 -115 13 l-124 0 -69 -117z"/>
<path d="M18353 12610 c-62 -37 -82 -124 -43 -187 49 -82 177 -85 239 -7 24
31 28 104 8 144 -33 65 -138 91 -204 50z"/>
<path d="M22443 12610 c-62 -37 -82 -124 -43 -187 49 -82 177 -85 239 -7 24
31 28 104 8 144 -33 65 -138 91 -204 50z"/>
<path d="M34613 12610 c-62 -37 -82 -124 -43 -187 49 -82 177 -85 239 -7 24
31 28 104 8 144 -33 65 -138 91 -204 50z"/>
<path d="M17030 12589 c-47 -5 -91 -11 -97 -14 -18 -6 -19 -1340 -2 -1351 23
-14 416 -17 511 -4 335 45 539 204 620 485 20 69 23 102 22 235 0 141 -3 162
-27 237 -67 201 -220 336 -447 394 -70 18 -120 22 -290 24 -113 2 -243 -1
-290 -6z m468 -204 c83 -20 134 -47 194 -103 89 -83 128 -190 128 -351 0 -260
-102 -422 -308 -491 -67 -22 -266 -39 -316 -26 l-26 6 0 484 0 485 23 4 c55
11 246 6 305 -8z"/>
<path d="M28330 11905 l0 -685 415 0 415 0 0 105 0 105 -290 0 -290 0 0 200 0
200 260 0 260 0 0 105 0 105 -260 0 -260 0 0 170 0 170 275 0 275 0 0 105 0
105 -400 0 -400 0 0 -685z"/>
<path d="M19223 12214 c-58 -21 -126 -85 -157 -146 l-26 -52 0 36 c0 19 -3 63
-6 97 l-7 61 -110 0 -110 0 6 -82 c4 -46 7 -269 7 -495 l0 -413 124 0 124 0 4
298 c3 259 6 302 21 337 41 91 112 134 220 135 l67 0 0 120 0 120 -57 -1 c-32
0 -77 -7 -100 -15z"/>
<path d="M19821 12214 c-210 -56 -351 -263 -351 -514 0 -256 132 -431 367
-486 93 -22 298 -14 403 16 41 12 79 25 83 30 8 7 -17 157 -27 168 -3 2 -35
-4 -73 -14 -97 -25 -271 -25 -342 0 -73 25 -135 87 -155 157 -9 29 -16 56 -16
61 0 4 151 8 335 8 l334 0 7 36 c11 61 -3 194 -29 271 -63 185 -204 284 -401
282 -44 0 -105 -7 -135 -15z m219 -179 c54 -28 94 -91 105 -168 l7 -47 -221 0
-221 0 6 28 c34 142 130 220 254 205 25 -3 56 -11 70 -18z"/>
<path d="M20902 12210 c-237 -62 -382 -256 -382 -510 0 -229 115 -400 316
-471 85 -30 245 -37 354 -15 117 24 124 29 117 80 -3 22 -11 64 -17 92 l-11
51 -42 -15 c-27 -10 -78 -16 -142 -16 -90 -1 -106 2 -157 27 -98 48 -147 129
-155 257 -10 140 40 244 146 303 45 26 68 31 135 35 45 2 101 -1 126 -8 85
-22 81 -24 106 73 25 102 29 97 -78 122 -87 20 -226 18 -316 -5z"/>
<path d="M21792 12210 c-237 -62 -382 -256 -382 -510 0 -229 115 -400 316
-471 85 -30 245 -37 354 -15 117 24 124 29 117 80 -3 22 -11 64 -17 92 l-11
51 -42 -15 c-27 -10 -78 -16 -142 -16 -90 -1 -106 2 -157 27 -98 48 -147 129
-155 257 -10 140 40 244 146 303 45 26 68 31 135 35 45 2 101 -1 126 -8 85
-22 81 -24 106 73 25 102 29 97 -78 122 -87 20 -226 18 -316 -5z"/>
<path d="M23220 12214 c-168 -45 -283 -150 -342 -310 -17 -48 -21 -82 -22
-189 -1 -113 2 -139 23 -196 49 -136 154 -244 282 -289 89 -31 232 -38 319
-16 135 34 243 111 307 218 66 109 92 301 58 433 -35 136 -124 254 -233 309
-107 54 -275 71 -392 40z m245 -199 c156 -91 180 -417 41 -563 -109 -116 -277
-80 -355 75 -68 136 -43 356 52 453 44 45 81 59 156 60 51 0 73 -5 106 -25z"/>
<path d="M24483 12211 c-65 -24 -97 -46 -151 -105 l-42 -46 0 44 c0 24 -3 58
-6 75 l-6 31 -111 0 -110 0 6 -182 c4 -99 7 -322 7 -495 l0 -313 125 0 125 0
0 308 c0 170 4 323 10 342 13 49 53 100 98 127 28 17 53 23 98 23 77 0 118
-25 153 -95 l26 -49 3 -328 3 -328 125 0 124 0 0 338 c0 268 -3 350 -15 395
-31 118 -91 199 -183 244 -75 37 -201 43 -279 14z"/>
<path d="M27121 12214 c-210 -56 -351 -263 -351 -514 0 -256 132 -431 367
-486 93 -22 298 -14 403 16 41 12 79 25 83 30 8 7 -17 157 -27 168 -3 2 -35
-4 -73 -14 -97 -25 -271 -25 -342 0 -73 25 -135 87 -155 157 -9 29 -16 56 -16
61 0 4 151 8 335 8 l334 0 7 36 c11 61 -3 194 -29 271 -63 185 -204 284 -401
282 -44 0 -105 -7 -135 -15z m219 -179 c54 -28 94 -91 105 -168 l7 -47 -221 0
-221 0 6 28 c34 142 130 220 254 205 25 -3 56 -11 70 -18z"/>
<path d="M32022 12210 c-237 -62 -382 -256 -382 -510 0 -229 115 -400 316
-471 85 -30 245 -37 354 -15 117 24 124 29 117 80 -3 22 -11 64 -17 92 l-11
51 -42 -15 c-27 -10 -78 -16 -142 -16 -90 -1 -106 2 -157 27 -98 48 -147 129
-155 257 -10 140 40 244 146 303 45 26 68 31 135 35 45 2 101 -1 126 -8 85
-22 81 -24 106 73 25 102 29 97 -78 122 -87 20 -226 18 -316 -5z"/>
<path d="M32805 12216 c-76 -18 -170 -53 -182 -69 -6 -8 -1 -40 14 -89 l24
-78 39 20 c102 52 266 65 340 28 53 -27 90 -78 90 -123 l0 -32 -102 -6 c-165
-10 -304 -58 -388 -133 -85 -77 -120 -216 -84 -330 24 -80 105 -162 183 -187
120 -38 270 -10 366 69 52 42 55 43 55 20 0 -13 3 -38 6 -55 l7 -31 111 0 111
0 -3 307 c-1 170 -7 339 -13 378 -21 146 -97 250 -217 296 -73 28 -265 36
-357 15z m333 -604 c-4 -115 -24 -157 -91 -197 -85 -49 -192 -39 -233 23 -26
39 -25 132 1 169 42 57 153 95 299 102 l28 1 -4 -98z"/>
<path d="M33972 12210 c-237 -62 -382 -256 -382 -510 0 -229 115 -400 316
-471 85 -30 245 -37 354 -15 117 24 124 29 117 80 -3 22 -11 64 -17 92 l-11
51 -42 -15 c-27 -10 -78 -16 -142 -16 -90 -1 -106 2 -157 27 -98 48 -147 129
-155 257 -10 140 40 244 146 303 45 26 68 31 135 35 45 2 101 -1 126 -8 85
-22 81 -24 106 73 25 102 29 97 -78 122 -87 20 -226 18 -316 -5z"/>
<path d="M35390 12214 c-168 -45 -283 -150 -342 -310 -17 -48 -21 -82 -22
-189 -1 -113 2 -139 23 -196 49 -136 154 -244 282 -289 89 -31 232 -38 319
-16 135 34 243 111 307 218 66 109 92 301 58 433 -35 136 -124 254 -233 309
-107 54 -275 71 -392 40z m245 -199 c156 -91 180 -417 41 -563 -109 -116 -277
-80 -355 75 -68 136 -43 356 52 453 44 45 81 59 156 60 51 0 73 -5 106 -25z"/>
<path d="M36653 12211 c-65 -24 -97 -46 -151 -105 l-42 -46 0 44 c0 24 -3 58
-6 75 l-6 31 -111 0 -110 0 6 -182 c4 -99 7 -322 7 -495 l0 -313 125 0 125 0
0 308 c0 170 4 323 10 342 13 49 53 100 98 127 28 17 53 23 98 23 77 0 118
-25 153 -95 l26 -49 3 -328 3 -328 125 0 124 0 0 338 c0 268 -3 350 -15 395
-31 118 -91 199 -183 244 -75 37 -201 43 -279 14z"/>
<path d="M18310 11715 l0 -495 125 0 125 0 0 495 0 495 -125 0 -125 0 0 -495z"/>
<path d="M22400 11715 l0 -495 125 0 125 0 0 495 0 495 -125 0 -125 0 0 -495z"/>
<path d="M30540 11874 c0 -375 7 -431 63 -525 59 -97 156 -149 282 -149 113 0
207 40 278 119 20 22 39 41 42 41 3 0 5 -24 5 -54 0 -88 -3 -86 123 -86 l110
0 -6 98 c-4 53 -7 276 -7 495 l0 397 -125 0 -125 0 0 -307 c0 -186 -4 -323
-11 -346 -13 -47 -72 -115 -116 -134 -18 -7 -56 -13 -85 -13 -74 0 -112 26
-146 98 l-27 57 -3 323 -3 322 -125 0 -124 0 0 -336z"/>
<path d="M34570 11715 l0 -495 125 0 125 0 0 495 0 495 -125 0 -125 0 0 -495z"/>
<path d="M33016 10168 c-39 -63 -156 -266 -156 -272 0 -3 39 -6 88 -5 l87 1
123 149 122 149 -125 0 c-118 0 -125 -1 -139 -22z"/>
<path d="M25853 10160 c-62 -37 -82 -124 -43 -187 49 -82 177 -85 239 -7 24
31 28 104 8 144 -33 65 -138 91 -204 50z"/>
<path d="M34983 10160 c-62 -37 -82 -124 -43 -187 49 -82 177 -85 239 -7 24
31 28 104 8 144 -33 65 -138 91 -204 50z"/>
<path d="M20917 10144 c-135 -32 -245 -115 -295 -221 -24 -51 -27 -70 -27
-158 0 -83 4 -108 22 -145 50 -102 148 -175 330 -249 149 -60 204 -97 232
-154 23 -48 26 -75 11 -129 -14 -47 -77 -102 -135 -117 -103 -26 -284 -3 -385
49 -23 12 -46 18 -50 13 -4 -4 -18 -50 -31 -100 -17 -66 -20 -96 -13 -103 6
-6 42 -21 80 -34 216 -74 486 -54 629 44 114 78 168 182 168 320 0 205 -93
304 -406 431 -43 17 -99 46 -125 64 -121 83 -99 234 40 281 68 22 209 15 293
-15 33 -12 66 -23 74 -24 9 -1 23 30 42 93 16 52 29 98 29 101 0 9 -120 47
-184 59 -82 14 -229 11 -299 -6z"/>
<path d="M30386 10063 c-14 -43 -106 -332 -206 -643 -99 -311 -187 -584 -195
-608 l-14 -43 132 3 131 3 32 105 c18 58 44 144 59 193 l26 87 217 0 217 0 61
-192 61 -193 138 -3 c108 -2 136 0 133 10 -3 7 -104 316 -224 686 l-219 672
-162 0 -161 0 -26 -77z m204 -222 c11 -46 47 -165 79 -265 32 -99 61 -191 65
-203 l7 -23 -174 0 -174 0 59 188 c51 164 78 258 102 366 4 15 9 27 11 25 2
-2 13 -42 25 -88z"/>
<path d="M32270 10012 l-105 -27 -3 -112 -3 -113 -69 0 -70 0 0 -95 0 -95 69
0 69 0 4 -292 c6 -336 12 -370 80 -444 62 -67 126 -87 258 -81 58 2 113 8 123
12 14 6 17 21 17 104 l0 97 -71 -4 c-82 -5 -112 7 -137 53 -14 25 -18 71 -20
293 l-3 262 120 0 121 0 0 95 0 95 -120 0 -120 0 0 140 c0 163 15 151 -140
112z"/>
<path d="M34360 10012 l-105 -27 -3 -112 -3 -113 -69 0 -70 0 0 -95 0 -95 69
0 69 0 4 -292 c6 -336 12 -370 80 -444 62 -67 126 -87 258 -81 58 2 113 8 123
12 14 6 17 21 17 104 l0 97 -71 -4 c-82 -5 -112 7 -137 53 -14 25 -18 71 -20
293 l-3 262 120 0 121 0 0 95 0 95 -120 0 -120 0 0 140 c0 163 15 151 -140
112z"/>
<path d="M23287 9769 c-64 -15 -138 -59 -188 -111 l-49 -51 0 61 c0 95 4 92
-123 92 l-110 0 6 -112 c4 -62 7 -375 7 -695 l0 -583 125 0 125 0 0 256 0 256
26 -31 c42 -50 142 -93 228 -99 282 -18 486 202 486 523 0 244 -114 428 -302
487 -63 19 -166 22 -231 7z m130 -213 c95 -45 143 -143 143 -291 0 -198 -92
-315 -248 -315 -76 0 -125 22 -175 80 -44 52 -57 103 -57 228 0 136 18 194 81
254 74 72 162 87 256 44z"/>
<path d="M24321 9764 c-210 -56 -351 -263 -351 -514 0 -256 132 -431 367 -486
93 -22 298 -14 403 16 41 12 79 25 83 30 8 7 -17 157 -27 168 -3 2 -35 -4 -73
-14 -97 -25 -271 -25 -342 0 -73 25 -135 87 -155 157 -9 29 -16 56 -16 61 0 4
151 8 335 8 l334 0 7 36 c11 61 -3 194 -29 271 -63 185 -204 284 -401 282 -44
0 -105 -7 -135 -15z m219 -179 c54 -28 94 -91 105 -168 l7 -47 -221 0 -221 0
6 28 c34 142 130 220 254 205 25 -3 56 -11 70 -18z"/>
<path d="M25483 9764 c-58 -21 -126 -85 -157 -146 l-26 -52 0 36 c0 19 -3 63
-6 97 l-7 61 -110 0 -110 0 6 -82 c4 -46 7 -269 7 -495 l0 -413 124 0 124 0 4
298 c3 259 6 302 21 337 41 91 112 134 220 135 l67 0 0 120 0 120 -57 -1 c-32
0 -77 -7 -100 -15z"/>
<path d="M26640 9764 c-168 -45 -283 -150 -342 -310 -17 -48 -21 -82 -22 -189
-1 -113 2 -139 23 -196 49 -136 154 -244 282 -289 89 -31 232 -38 319 -16 135
34 243 111 307 218 66 109 92 301 58 433 -35 136 -124 254 -233 309 -107 54
-275 71 -392 40z m245 -199 c156 -91 180 -417 41 -563 -109 -116 -277 -80
-355 75 -68 136 -43 356 52 453 44 45 81 59 156 60 51 0 73 -5 106 -25z"/>
<path d="M27873 9764 c-58 -21 -126 -85 -157 -146 l-26 -52 0 36 c0 19 -3 63
-6 97 l-7 61 -110 0 -110 0 6 -82 c4 -46 7 -269 7 -495 l0 -413 124 0 124 0 4
298 c3 259 6 302 21 337 41 91 112 134 220 135 l67 0 0 120 0 120 -57 -1 c-32
0 -77 -7 -100 -15z"/>
<path d="M31753 9764 c-58 -21 -126 -85 -157 -146 l-26 -52 0 36 c0 19 -3 63
-6 97 l-7 61 -110 0 -110 0 6 -82 c4 -46 7 -269 7 -495 l0 -413 124 0 124 0 4
298 c3 259 6 302 21 337 41 91 112 134 220 135 l67 0 0 120 0 120 -57 -1 c-32
0 -77 -7 -100 -15z"/>
<path d="M33580 9767 c-154 -45 -238 -139 -248 -278 -4 -60 -1 -75 22 -124 42
-84 106 -130 272 -194 101 -39 137 -73 137 -132 0 -56 -41 -94 -108 -105 -62
-9 -176 11 -244 42 -30 13 -56 22 -58 20 -2 -2 -15 -43 -28 -90 l-24 -86 30
-16 c59 -30 180 -54 273 -54 262 0 418 127 404 329 -10 142 -84 216 -298 296
-46 17 -88 42 -109 62 -30 30 -33 38 -28 71 8 48 44 79 102 88 55 8 154 -10
207 -37 29 -15 39 -17 43 -7 14 44 46 170 43 173 -2 2 -32 13 -68 26 -80 27
-251 36 -320 16z"/>
<path d="M35772 9760 c-237 -62 -382 -256 -382 -510 0 -229 115 -400 316 -471
85 -30 245 -37 354 -15 117 24 124 29 117 80 -3 22 -11 64 -17 92 l-11 51 -42
-15 c-27 -10 -78 -16 -142 -16 -90 -1 -106 2 -157 27 -98 48 -147 129 -155
257 -10 140 40 244 146 303 45 26 68 31 135 35 45 2 101 -1 126 -8 85 -22 81
-24 106 73 25 102 29 97 -78 122 -87 20 -226 18 -316 -5z"/>
<path d="M36555 9766 c-76 -18 -170 -53 -182 -69 -6 -8 -1 -40 14 -89 l24 -78
39 20 c102 52 266 65 340 28 53 -27 90 -78 90 -123 l0 -32 -102 -6 c-165 -10
-304 -58 -388 -133 -85 -77 -120 -216 -84 -330 24 -80 105 -162 183 -187 120
-38 270 -10 366 69 52 42 55 43 55 20 0 -13 3 -38 6 -55 l7 -31 111 0 111 0
-3 307 c-1 170 -7 339 -13 378 -21 146 -97 250 -217 296 -73 28 -265 36 -357
15z m333 -604 c-4 -115 -24 -157 -91 -197 -85 -49 -192 -39 -233 23 -26 39
-25 132 1 169 42 57 153 95 299 102 l28 1 -4 -98z"/>
<path d="M21670 9424 c0 -375 7 -431 63 -525 59 -97 156 -149 282 -149 113 0
207 40 278 119 20 22 39 41 42 41 3 0 5 -24 5 -54 0 -88 -3 -86 123 -86 l110
0 -6 98 c-4 53 -7 276 -7 495 l0 397 -125 0 -125 0 0 -307 c0 -186 -4 -323
-11 -346 -13 -47 -72 -115 -116 -134 -18 -7 -56 -13 -85 -13 -74 0 -112 26
-146 98 l-27 57 -3 323 -3 322 -125 0 -124 0 0 -336z"/>
<path d="M25810 9265 l0 -495 125 0 125 0 0 495 0 495 -125 0 -125 0 0 -495z"/>
<path d="M28510 9755 c0 -3 83 -215 185 -471 102 -256 185 -475 185 -486 0
-29 -46 -103 -97 -153 -25 -26 -78 -61 -122 -83 l-77 -37 29 -107 29 -106 48
13 c122 32 247 127 330 252 91 135 137 244 342 803 72 195 133 361 135 368 4
10 -24 12 -132 10 l-137 -3 -79 -270 c-44 -148 -89 -307 -100 -352 -12 -46
-25 -83 -30 -83 -5 0 -9 7 -9 16 0 8 -50 168 -112 355 l-112 339 -138 0 c-76
0 -138 -2 -138 -5z"/>
<path d="M32850 9265 l0 -495 125 0 125 0 0 495 0 495 -125 0 -125 0 0 -495z"/>
<path d="M34940 9265 l0 -495 125 0 125 0 0 495 0 495 -125 0 -125 0 0 -495z"/>
</g>
</svg>
