<?xml version="1.0" encoding="UTF-8"?>
<svg id="Layer_1" data-name="Layer 1" xmlns="http://www.w3.org/2000/svg" viewBox="0 0 229.28 232.02">
  <defs>
    <style>
      .cls-1 {
        fill: #fefefe;
      }
    </style>
  </defs>
  <path d="M111.83,220.54c-21.34-.26-44.73-1.98-67.68-7.7-8.35-2.08-16.46-4.81-23.89-9.27-2.82-1.69-5.43-3.65-7.5-6.25-4.28-5.37-4.17-11.4,.36-16.62,4.04-4.66,9.38-7.44,14.96-9.7,1.95-.79,2.91-1.73,2.52-3.84-.08-.43-.08-.9,0-1.34,.73-4.16-.43-7.15-4.88-8.32-1.32-.35-2.16-1.56-2.14-2.87,.08-6.83-.57-13.69,.32-20.49,.7-5.34,3.67-9.31,8.26-12.03,1.13-.67,1.38-1.04,.61-2.3-4.73-7.72-1.44-17.2,7.03-20.28,1.13-.41,1.63-1.01,1.92-2.08,1.24-4.51,3.92-7.95,7.97-10.26,1.06-.6,1.29-.99,.59-2.15-5.46-9.08-.22-20.03,10.26-21.17,5.45-.59,9.91,1.7,12.9,6.32,3,4.63,3.16,9.55,.27,14.26-1.03,1.68-.74,2.26,.81,3.04,1.46,.74,2.73,1.85,3.72,3.16,.87,1.15,1.39,.91,2.15-.08,1.04-1.38,2.39-2.48,3.93-3.24,1.37-.68,1.51-1.21,.66-2.6-4.73-7.65-1.02-17.46,7.52-20.23,5.5-1.78,11.41,0,14.99,4.51,3.66,4.61,4.15,10.63,1.04,15.58-.87,1.38-1,2.05,.61,2.75,2.07,.9,3.33,3.91,5.09,3.87,1.59-.04,2.91-2.91,4.89-3.84,1.48-.7,1.61-1.26,.67-2.73-3.61-5.68-2.32-13.13,2.81-17.51,5.14-4.39,12.56-4.45,17.8-.13,5.17,4.26,6.56,11.74,3.06,17.5-.9,1.48-.97,2.14,.67,2.93,1.54,.74,2.85,1.91,3.88,3.3,.78,1.05,1.29,.9,2.01-.04,1.15-1.49,2.61-2.7,4.28-3.5,1.34-.65,1.24-1.14,.51-2.27-3.34-5.21-2.89-11.42,1.02-16.11,3.84-4.6,10.2-6.22,15.74-4.02,5.52,2.19,9.04,7.74,8.67,13.76-.15,2.41-.9,4.67-2.3,6.66-.63,.89-.54,1.31,.44,1.85,4.3,2.4,7.05,6.05,8.33,10.79,.24,.88,.7,1.31,1.53,1.62,8.89,3.4,12.03,12.32,7.19,20.51-.62,1.05-.48,1.4,.51,2,6.08,3.64,8.88,9.11,8.84,16.14-.03,5.06-.06,10.12,.02,15.17,.04,2.2-.7,3.88-2.81,4.52-3.52,1.08-4.48,3.2-4.45,6.89,.02,3.81,.81,5.9,4.69,7.24,4.61,1.59,8.76,4.33,12.21,7.93,5.64,5.89,5.64,12.98-.09,18.78-5.24,5.3-11.9,8.21-18.75,10.69-13.49,4.88-27.55,7.21-41.72,8.9-13.23,1.58-26.52,2.24-42.05,2.3Z"/>
  <path d="M110.67,41.29c0-6.62,.04-13.24-.02-19.86-.02-2.28,.79-3.81,2.92-4.73,3.6-1.56,6.9-3.82,10.79-4.73,4.08-.96,8.1-.52,11.67,1.52,4.46,2.56,8.82,2.77,13.42,.72,.47-.21,.98-.34,1.48-.49,3.04-.89,5,.47,5.05,3.66,.07,5.28,.02,10.56,.02,15.85,0,2.46,0,4.91,0,7.37,0,2.09-.91,3.38-2.95,4.18-6.86,2.7-13.48,3.03-20.11-.84-3.46-2.02-7-1.15-10.65,.32-3.71,1.49-5.19,3.58-4.71,7.6,.4,3.37,.03,6.84,.11,10.26,.03,1.3-.41,1.6-1.65,1.62-5.36,.1-5.36,.14-5.36-5.26,0-5.73,0-11.46,0-17.19Z"/>
  <path class="cls-1" d="M113.08,213.79c-12.42,.11-25.77-.64-39.06-2.3-14.36-1.8-28.55-4.43-42.11-9.73-3.88-1.52-7.63-3.31-10.96-5.86-.77-.58-1.51-1.21-2.18-1.9-3.18-3.28-3.19-6.24,.02-9.5,3.02-3.07,6.81-4.99,10.67-6.76,.95-.44,1.16,0,1.15,.88-.03,2.23-.04,4.46,0,6.69,.04,2.57,1.28,3.9,3.81,3.92,6.62,.05,13.24,.04,19.86,0,2.74-.02,4.06-1.49,4.07-4.43,.02-7.66,0-15.32,0-22.99,0-1.72,1.64-3.38,3.43-3.47,1.68-.09,3.68,1.81,3.68,3.5,0,7.66,0,15.32,0,22.99,0,3.19,1.23,4.4,4.46,4.41,6.25,.01,12.5,.01,18.75,0,3.16,0,4.49-1.31,4.49-4.43,.01-7.66,0-15.32,0-22.99,0-1.71,1.96-3.56,3.67-3.48,1.77,.09,3.47,1.78,3.47,3.47,0,7.66,0,15.32,0,22.99,0,3.18,1.26,4.43,4.45,4.44,6.25,.01,12.5,.01,18.75,0,3.21,0,4.48-1.25,4.48-4.41,.01-7.66,0-15.32,0-22.99,0-1.7,1.96-3.56,3.67-3.5,1.75,.06,3.46,1.75,3.46,3.45,0,7.59,0,15.18,0,22.76,0,3.44,1.24,4.68,4.69,4.68,6.1,0,12.2,0,18.3,0,3.62,0,4.72-1.13,4.72-4.83,0-7.51,0-15.03,0-22.54,0-1.71,1.93-3.56,3.67-3.53,1.73,.03,3.44,1.73,3.44,3.45,0,7.59,0,15.18,0,22.76,0,3.4,1.31,4.69,4.71,4.69,6.17,0,12.35,0,18.52,0,3.36,0,4.5-1.17,4.51-4.58,0-1.93,.02-3.87,0-5.8-.02-.99,.05-1.64,1.33-1.05,3.66,1.69,7.23,3.53,10.15,6.35,3.69,3.57,3.65,6.72-.12,10.29-3.29,3.11-7.29,5.08-11.42,6.8-10.04,4.19-20.59,6.61-31.26,8.45-17.31,2.97-34.79,4.16-53.33,4.09Z"/>
  <path class="cls-1" d="M37.37,169.49c0-3.5-.07-7,.03-10.49,.06-2.2-.66-3.9-2.78-4.54-3.78-1.13-4.81-3.53-4.39-7.3,.37-3.31,.05-6.69,.09-10.03,.07-6.12,4.65-10.71,10.73-10.78,2.31-.03,4.61-.04,6.92,0,5.84,.1,10.38,4.72,10.39,10.56,.01,4.61-.05,9.23,.04,13.84,.02,1.24-.32,1.98-1.49,2.32-4.56,1.3-5.81,4.34-5.5,8.92,.4,6.07,.02,12.2,.15,18.29,.04,1.85-.57,2.25-2.27,2.19-3.34-.12-6.7-.1-10.04,0-1.4,.04-1.94-.28-1.89-1.81,.12-3.72,.04-7.44,.04-11.16Z"/>
  <path class="cls-1" d="M72.2,169.48c0-3.5-.08-7,.03-10.49,.08-2.31-.75-3.96-2.95-4.64-3.43-1.07-4.55-3.2-4.15-6.78,.38-3.38,.05-6.83,.09-10.26,.08-6.46,4.56-10.93,10.97-10.97,2.23-.01,4.46-.04,6.69,0,5.75,.11,10.29,4.68,10.32,10.39,.03,4.61-.03,9.22,.04,13.84,.02,1.26-.22,2.13-1.53,2.52-4.4,1.3-5.7,4.23-5.41,8.74,.4,6.22,.05,12.49,.14,18.74,.02,1.48-.41,1.93-1.88,1.89-3.49-.1-7-.12-10.49,0-1.67,.06-1.94-.58-1.9-2.05,.09-3.64,.03-7.29,.03-10.93Z"/>
  <path class="cls-1" d="M141.91,169.47c0-3.57-.07-7.14,.03-10.71,.06-2.14-.71-3.74-2.73-4.32-3.64-1.06-4.53-3.39-4.19-6.95,.34-3.54,.06-7.13,.08-10.7,.03-5.72,4.54-10.31,10.28-10.43,2.45-.05,4.91-.05,7.36,0,5.43,.12,10.04,4.37,10.28,9.8,.22,4.97,.03,9.97,.11,14.95,.02,1.18-.65,1.65-1.49,1.9-4.59,1.37-5.97,4.36-5.64,9.07,.43,6.14,.06,12.34,.14,18.51,.02,1.48-.39,1.91-1.86,1.87-3.49-.1-6.99-.12-10.49,0-1.66,.06-1.97-.59-1.93-2.07,.09-3.64,.03-7.29,.03-10.93Z"/>
  <path class="cls-1" d="M176.82,169.35c0-3.42-.08-6.85,.03-10.26,.07-2.28-.61-4.03-2.86-4.71-3.48-1.05-4.48-3.23-4.11-6.77,.37-3.61,.07-7.28,.09-10.93,.03-5.46,4.48-10.11,9.94-10.32,2.67-.1,5.36-.1,8.03,0,5.34,.2,9.87,4.7,10.03,10.09,.14,4.83,0,9.67,.07,14.5,.02,1.11-.5,1.57-1.37,1.99-6.49,3.12-5.7,2.47-5.73,9.61-.02,5.95-.08,11.9,.04,17.85,.04,1.74-.5,2.11-2.12,2.05-3.27-.13-6.55-.12-9.82,0-1.69,.06-2.36-.32-2.28-2.18,.16-3.64,.05-7.29,.05-10.93Z"/>
  <path class="cls-1" d="M107.04,169.35c0-3.5-.08-6.99,.03-10.48,.07-2.22-.72-3.83-2.84-4.47-3.48-1.05-4.49-3.24-4.13-6.77,.37-3.61,.05-7.28,.1-10.92,.08-5.74,4.61-10.25,10.39-10.34,2.38-.04,4.76-.04,7.14,0,5.78,.1,10.31,4.59,10.38,10.35,.06,4.68-.03,9.37,.06,14.05,.02,1.25-.38,1.98-1.52,2.31-4.57,1.31-5.77,4.36-5.47,8.93,.4,6.07,.02,12.19,.15,18.29,.04,1.84-.55,2.25-2.25,2.18-3.34-.13-6.69-.11-10.04,0-1.52,.05-2.07-.34-2.02-1.96,.12-3.71,.04-7.44,.04-11.15Z"/>
  <path class="cls-1" d="M62.24,91.49c1.8,.12,3.97-.27,6.08,.43,3.06,1.02,5.2,3.01,6.59,5.91,.48,1,.44,1.42-.7,1.95-8.55,3.95-11.12,12.17-6.4,20.32,.53,.92,.57,1.29-.45,1.82-1.78,.93-3.4,2.16-4.61,3.8-.71,.97-1.19,.77-1.85-.06-1.27-1.58-2.84-2.86-4.63-3.78-1.06-.54-.91-.92-.38-1.8,4.79-7.89,2.14-16.38-6.36-20.27-1.26-.58-1.3-1.12-.76-2.15,1.99-3.77,5-6,9.35-6.17,1.26-.05,2.53,0,4.13,0Z"/>
  <path class="cls-1" d="M90.13,121.21c4.91-7.17,3.12-13.54-.42-17.65-1.42-1.65-3.1-2.99-5.19-3.7-1.32-.45-1.44-1.13-.82-2.28,1.97-3.69,4.92-5.89,9.16-6.07,2.59-.11,5.2-.13,7.79,0,4.32,.23,7.29,2.5,9.16,6.36,.53,1.1,.25,1.44-.79,1.92-8.48,3.91-11.12,12.33-6.35,20.29,.52,.86,.7,1.22-.38,1.79-1.84,.96-3.49,2.25-4.77,3.93-.52,.68-.93,.85-1.53,.08-1.58-2.02-3.7-3.38-5.86-4.68Z"/>
  <path class="cls-1" d="M138.19,121.21c-2.21,1.33-4.4,2.71-6,4.8-.58,.76-.95,.34-1.37-.17-1.38-1.68-3.05-3.04-4.96-4.06-.77-.41-.89-.76-.38-1.5,5.47-7.77,1.4-17.69-6.37-20.6-1.16-.44-1.03-.92-.62-1.79,1.83-3.89,4.83-6.14,9.14-6.38,2.59-.15,5.2-.06,7.79-.02,4,.07,7.96,2.86,9.34,6.47,.29,.76,.44,1.16-.57,1.68-9.47,4.87-11.54,12.33-6.01,21.56Z"/>
  <path class="cls-1" d="M166.79,91.49c1.78,.15,3.94-.26,6.07,.41,3.1,.98,5.23,2.97,6.7,5.81,.56,1.08,.41,1.61-.81,2.13-4.8,2.02-7.67,5.62-8.56,10.8-.58,3.41,.3,6.48,2.13,9.29,.69,1.06,.75,1.49-.48,2.1-1.73,.86-3.26,2.1-4.44,3.65-.67,.88-1.15,.95-1.85,.04-1.24-1.61-2.83-2.87-4.61-3.81-1.02-.54-.95-.92-.42-1.83,4.72-8.12,2.14-16.31-6.44-20.31-1.18-.55-1.13-1.02-.66-1.96,1.9-3.84,4.9-6.06,9.23-6.3,1.26-.07,2.53-.01,4.15-.01Z"/>
  <path class="cls-1" d="M138.69,77.74c-.04,3.83-3.28,7.02-7.13,7-3.83-.01-7.07-3.24-7.08-7.07,0-3.91,3.34-7.21,7.26-7.13,3.82,.07,6.98,3.35,6.95,7.2Z"/>
  <path class="cls-1" d="M96.72,84.75c-3.85,0-7.07-3.19-7.1-7.03-.03-3.84,3.16-7.12,6.97-7.18,3.92-.06,7.26,3.25,7.23,7.16-.02,3.83-3.27,7.04-7.11,7.05Z"/>
  <path class="cls-1" d="M114.15,119.59c-3.87,0-7.1-3.21-7.1-7.06,0-3.85,3.26-7.1,7.11-7.1,3.87,0,7.1,3.25,7.1,7.11,0,3.84-3.24,7.05-7.11,7.05Z"/>
  <path class="cls-1" d="M166.51,84.75c-3.86,.02-7.12-3.19-7.14-7.05-.03-3.85,3.21-7.13,7.06-7.15,3.85-.02,7.08,3.2,7.1,7.08,.01,3.88-3.17,7.11-7.02,7.13Z"/>
  <path class="cls-1" d="M61.82,84.75c-3.85,0-7.05-3.23-7.04-7.1,0-3.87,3.22-7.11,7.07-7.1,3.85,0,7.1,3.28,7.09,7.12-.01,3.86-3.25,7.09-7.12,7.08Z"/>
  <path class="cls-1" d="M79.28,119.59c-3.86,0-7.07-3.2-7.08-7.05,0-3.87,3.22-7.11,7.07-7.11,3.86,0,7.12,3.25,7.12,7.1,0,3.85-3.24,7.06-7.11,7.06Z"/>
  <path class="cls-1" d="M156.11,112.47c.02,3.87-3.16,7.1-7.01,7.12-3.89,.03-7.14-3.14-7.18-6.99-.04-3.84,3.2-7.14,7.05-7.17,3.87-.03,7.12,3.18,7.14,7.04Z"/>
  <path class="cls-1" d="M44.39,119.59c-3.86,0-7.02-3.19-7.02-7.06,0-3.9,3.17-7.11,7.03-7.1,3.88,0,7.08,3.23,7.07,7.11,0,3.9-3.18,7.06-7.08,7.05Z"/>
  <path class="cls-1" d="M190.94,112.56c0,3.86-3.19,7.04-7.04,7.04-3.89,0-7.06-3.18-7.06-7.08,0-3.89,3.21-7.09,7.09-7.08,3.86,0,7.02,3.22,7.01,7.12Z"/>
  <path class="cls-1" d="M149.03,21.47c0,5.52-.02,10.87,.02,16.21,0,.91-.37,1.27-1.18,1.57-3.63,1.34-7.07,1.13-10.48-.78-4.76-2.67-9.8-3.37-15.03-1.56-1.51,.53-2.96,1.26-4.7,2.02,0-5.48,0-10.73,0-15.98,0-.63,.39-.91,.87-1.14,2.06-1,4.06-2.18,6.19-2.99,2.84-1.08,5.7-.78,8.37,.7,4.99,2.78,10.2,3.83,15.94,1.94Z"/>
</svg>