<?xml version="1.0" encoding="UTF-8"?>
<svg id="Layer_1" data-name="Layer 1" xmlns="http://www.w3.org/2000/svg" viewBox="0 0 229.28 232.02">
  <defs>
    <style>
      .cls-1 {
        fill: #4d4d4d;
      }

      .cls-2 {
        fill: #525252;
      }

      .cls-3 {
        fill: #fefefe;
      }
    </style>
  </defs>
  <path d="M219.24,93.62c-3.31,1-6.62,2-9.86,2.99,3.22,6.42,4.41,13.12,3.54,20.34-.85,7.03-1.85,13.85-7.54,18.88,.85,.62,1.91,.69,2.87,.91,1.49,.34,1.94,1.39,2.17,2.62,.23,1.22-.54,1.98-1.42,2.72-1.48,1.25-3.31,1.89-4.97,2.77-3.25,1.71-4.02,4.72-4.73,7.77-.93,3.97-.58,8.04-.45,12.07,.03,.8,.36,1.08,1.14,1.3,2.65,.78,5.37,1.42,7.85,2.69,1.58,.81,3.1,1.72,4.42,2.91,1.46,1.32,1.26,2.04-.59,2.73-4.11,1.55-8.37,2.59-12.63,3.57-3.71,.85-7.36,1.9-11.04,2.81-8.7,2.16-17.51,3.95-26.09,6.51-7.47,2.23-15.18,3.51-22.58,5.93-6.78,2.21-13.75,3.7-20.66,5.39-1.8,.44-3.89,.21-5.51,1.05-2.78,1.44-5.85,1.59-8.72,2.53-.94,.31-1.88,.22-2.88-.11-2.27-.75-4.48-1.64-6.71-2.47-4.91-1.83-10.13-2.76-14.95-4.84-6.03-2.6-12.55-3.88-18.49-6.55-5.9-2.64-12.16-4.05-18.14-6.39-3.76-1.47-7.64-2.87-11.61-3.75-3.18-.71-5.16-2.74-6.97-5.06-3-3.86-4.18-8.44-4.96-13.19-.64-3.9-.47-7.81-.29-11.69,.22-4.73,2.19-8.95,5.06-12.77-1.17-.32-2.27-.66-3.38-.92-.74-.17-1.63-.03-1.75-1.11-.13-1.13,.23-1.84,1.29-2.56,2.83-1.89,6.08-2.5,9.21-3.52,3.85-1.25,3.83-1.24,3.89-5.19,.06-3.88,.12-7.78-1.24-11.47-1.19-3.23-2.87-6.12-6.62-7.1-.83-.22-1.66-.69-2.32-1.4-1.95-2.11-1.46-4.5,1.33-5.17,2.36-.57,4.28-2.2,6.84-2.59-4.81-4.84-5.15-11.17-6.03-17.37-.67-4.72-.18-9.29,.85-13.87,1.65-7.33,6.32-10.51,13.64-11.73,6.03-1.01,12.09-1.87,18.15-2.74,4.97-.71,9.94-1.39,14.92-1.97,.73-.09,1.31-.59,2.05-.49,.8-.13,1.69,.23,2.41-.39,8.88-1.31,17.76-2.63,26.64-3.92,4.27-.62,8.55-1.19,12.83-1.79,.61-.5,1.52-.1,2.11-.68,7.31-.92,14.62-1.85,21.93-2.78,.72-.09,1.45-.19,2.14-.42,3.43-1.14,6.52,.32,9.64,1.28,8.77,2.69,17.59,5.25,26.24,8.29,6.05,2.13,12.37,3.46,18.27,5.93,4.56,1.91,9.39,2.84,13.95,4.65,.66,.26,1.31,.13,1.95,.24,1,.17,2.01,.43,2.37,1.51,.39,1.18,.4,2.33-.58,3.34-.62,.64-1.32,1.12-2.12,1.44-5.09,2.02-7.01,6.22-7.89,11.22-.65,3.75-.32,7.46-.02,11.2,.1,1.19,1.08,1.03,1.52,1.12,4.61,.96,8.45,3.56,12.52,5.68v1.6Z"/>
  <path class="cls-1" d="M77.74,45.71c-.63,1.2-1.49,.99-2.41,.39,.7-.77,1.6-.33,2.41-.39Z"/>
  <path class="cls-2" d="M119.32,39.32c-.39,1.19-1.33,.69-2.11,.68,.37-1.28,1.37-.57,2.11-.68Z"/>
  <path class="cls-3" d="M110.1,87.96c-.76,4.56-.07,9.23-.47,13.83-.21,2.44-.33,4.87-.29,7.31,.02,1.46-.64,1.39-1.7,1.22-4.17-.65-8.09-2.1-12.08-3.42-6.04-1.99-12.31-3.29-18.3-5.41-6.06-2.14-12.32-3.55-18.39-5.6-3.09-1.05-6.12-2.25-9.29-3.05-3.27-.82-6.53-1.71-9.83-2.39-3.11-.64-4.94-2.87-5.85-5.42-2.35-6.62-3.17-13.42-.75-20.29,1.26-3.57,3.42-4.79,7.02-3.55,8.3,2.88,16.66,5.63,24.82,8.88,5.92,2.36,12.17,3.64,18.06,5.98,5.87,2.33,11.99,3.94,17.81,6.38,2.35,.99,4.71,1.83,7.15,2.5,1.55,.43,2.69,1.08,2.08,3.03Z"/>
  <path class="cls-3" d="M128.91,136.42c-.06-3.35,.13-6.19-.41-9.01-.24-1.27,.24-1.85,1.6-2.33,4.96-1.76,10.19-2.77,14.95-5.06,5.38-2.59,11.37-3.45,16.73-6,3.28-1.55,6.72-2.57,10.16-3.58,2.42-.72,5-.97,7.29-2.1,5.9-2.93,12.41-4.13,18.5-6.52,.74-.29,1.21-.94,2.11-1.05,2.48-.31,4,1.06,4.99,2.89,2.1,3.91,2.29,8.15,1.79,12.53-.33,2.85-.76,5.59-1.68,8.33-.97,2.89-2.77,4.47-5.59,5.25-6.25,1.73-12.29,4.17-18.59,5.76-2.83,.72-5.67,1.49-8.42,2.49-6.55,2.37-13.34,3.9-19.95,6.03-6.48,2.09-13.12,3.57-19.63,5.53-.37,.11-.74,.25-1.1,.39-2.37,.94-2.46,.93-2.35-1.77,.16-4.11-.83-8.17-.4-11.77Z"/>
  <path class="cls-3" d="M26.26,153.62c-.48-3.25,.23-6.29,1.1-9.31,.75-2.61,3.49-3.85,6.48-2.86,3.13,1.04,6.23,2.16,9.34,3.27,4.98,1.78,10.27,2.77,15.12,4.91,5.97,2.63,12.46,3.77,18.31,6.49,5.29,2.46,11.07,3.35,16.26,5.86,3.02,1.46,6.26,2.02,9.39,2.99,1.22,.38,1.46,.93,1.48,2.08,.12,6.9-.74,13.78-.42,20.68,.04,.87-.48,1.6-.46,2.5,.01,.86-.69,.46-1.17,.33-3.86-1.07-7.64-2.38-11.44-3.68-5.87-2.01-11.92-3.51-17.89-5.2-7.22-2.05-14.54-3.78-21.62-6.22-6.08-2.09-12.29-3.67-18.4-5.57-2.18-.68-3.87-2.74-4.45-4.81-1.05-3.72-2.34-7.51-1.62-11.45Z"/>
  <path class="cls-3" d="M113.33,110.7c-.21-6.93,.65-13.81,.42-20.71-.03-.94,.45-1.91,.36-2.91-.09-.98,.34-1.31,1.35-1.49,3.57-.65,7.17-1.24,10.64-2.26,8.98-2.62,18.28-3.81,27.3-6.18,3.21-.84,6.4-1.82,9.66-2.29,6.88-.99,13.68-2.36,20.38-4.1,6.37-1.65,12.82-2.84,19.43-4.39-1.9,5.02-2.68,10-2.42,15.15,.08,1.71,.63,3.38,.47,5.12-.05,.52,.3,.78-.57,1.11-4.93,1.83-10,3.29-15.13,4.15-4.21,.71-8.32,1.69-12.33,2.98-7.06,2.28-14.38,3.56-21.41,5.83-7.66,2.47-15.56,3.96-23.22,6.31-3.2,.98-6.41,1.95-9.65,2.78-1.7,.43-3.52,.24-5.27,.91Z"/>
  <path class="cls-3" d="M35.65,106.46c2.94,.05,5.25,1.35,7.74,1.96,4.44,1.09,8.99,1.46,13.45,2.37,3.83,.78,7.73,1.35,11.47,2.44,8.36,2.43,17.06,3.39,25.4,5.7,6.22,1.73,12.56,2.72,18.78,4.34,3.64,.95,7.37,1.58,11.08,2.28,.6,.11,.97,.14,.94,.88-.06,1.78,.52,3.49,.41,5.3-.36,5.77,.5,11.52,.38,17.29-.04,1.97,.05,1.78-1.87,1.08-2.13-.77-4.4-1.14-6.61-1.69-3.47-.87-6.92-1.78-10.4-2.59-1.9-.44-3.9-.31-5.79-1.01-7.21-2.65-14.88-3.68-22.13-6.11-7.53-2.52-15.38-3.77-22.87-6.3-4.94-1.67-10.01-2.76-15.02-4.15-.12-.03-.23-.14-.35-.19-.79-.3-2.11,.38-2.37-.39-.38-1.14-.28-2.51-.1-3.75,.75-5.27,.57-10.44-1.44-15.42-.27-.67,.09-1.41-.7-2.05Z"/>
  <path class="cls-3" d="M126.8,161.94c2.94,1.48,5.77-.6,8.68-1.47,4.25-1.27,8.59-2.12,12.83-3.36,5.46-1.59,11.07-2.46,16.58-3.8,3.98-.97,8.16-1.27,12.02-2.56,6.07-2.02,12.48-2.34,18.53-4.32,.88-.29,1.14-.11,.72,.97-2.21,5.74-1.94,11.79-1.56,17.73,.14,2.16-.29,2.32-2.08,2.9-8.16,2.64-16.63,4.17-24.76,6.8-7.15,2.31-14.47,3.85-21.68,5.85-8.29,2.3-16.72,4.09-24.96,6.53-4.02,1.19-8.15,1.9-12.1,3.28-1.34,.47-1.93,.23-1.69-1.19,.75-4.61,.02-9.27,.47-13.87,.27-2.78,.25-5.53,.3-8.3,.02-1.03,.33-1.37,1.41-1.67,4.22-1.16,8.55-1.62,12.83-2.37,1.37-.24,2.6-1.19,4.47-1.16Z"/>
</svg>