<?xml version="1.0" encoding="UTF-8"?>
<svg id="Layer_1" data-name="Layer 1" xmlns="http://www.w3.org/2000/svg" viewBox="0 0 226.43 232.02">
  <defs>
    <style>
      .cls-1 {
        fill: #feed7c;
      }

      .cls-2 {
        fill: #deddd4;
      }

      .cls-3 {
        fill: #16607c;
      }

      .cls-4 {
        fill: #1b5967;
      }

      .cls-5 {
        fill: #004a5a;
      }

      .cls-6 {
        fill: #dd5d4e;
      }

      .cls-7 {
        fill: #e1dece;
      }

      .cls-8 {
        fill: #dc5749;
      }

      .cls-9 {
        fill: #dddcd3;
      }

      .cls-10 {
        fill: #0197c0;
      }

      .cls-11 {
        fill: #2d748c;
      }

      .cls-12 {
        fill: #e1a18d;
      }

      .cls-13 {
        fill: #c6c5ba;
      }

      .cls-14 {
        fill: #2b738c;
      }

      .cls-15 {
        fill: #fed756;
      }

      .cls-16 {
        fill: #0097c0;
      }

      .cls-17 {
        fill: #f9bc49;
      }
    </style>
  </defs>
  <path class="cls-16" d="M63.28,107.41c-.1-9.43-.2-18.86-.31-28.29-2.46-7.77-1.28-15.67-.73-23.52,.17-2.46,2.62-3.41,4.67-4.32,5.3-2.35,11-3.39,16.64-3.87,24.69-2.12,49.39-3.17,73.88,2.22,9.48,2.09,11.18,3.87,10.95,13.41-.13,5.3,1.34,10.79-1.31,15.89-.1,8.08-.17,16.17-.32,24.25-.03,1.71,.45,3.49-.4,5.14-20.04-7.61-41.02-7.69-61.92-6.94-12.91,.46-26.05,.92-38.36,5.92-.89,.36-1.84,.49-2.78,.1Z"/>
  <path class="cls-14" d="M167.06,78.95c-.03-6.18-.41-12.39,.02-18.53,.37-5.26-2.06-7.52-6.67-8.63-9.68-2.34-19.48-3.99-29.42-4.27-10.61-.31-21.26-.43-31.86,.03-10.53,.46-21.08,1.36-31.22,4.74-3.4,1.13-5.08,2.93-4.89,6.89,.33,6.64,0,13.3-.05,19.96-5.92-2.63-11.85-5.26-17.77-7.89-1.27-.97-1.49-2.41-1.5-3.82-.04-5.98-.54-11.96,.33-17.92,.53-1.85,1.96-2.84,3.63-3.45,22.24-8.13,44.2-17.05,66.86-24.01,.3-.09,.62-.08,.94-.1,9.67,2.51,18.9,6.33,28.26,9.74,20.54,7.49,41.04,15.1,61.57,22.61,2.18,.8,4.7,1.17,5.75,3.75-14.44,7.44-29.14,14.3-43.97,20.9Z"/>
  <path class="cls-7" d="M180.35,186.36c-.86,.64-.92,1.58-.99,2.55-.47,6.54-.44,6.39-7.01,4.95-12.31-2.69-24.66-5.21-37.33-5.62-1.12-.04-2.24-.63-2.42,1.12-3.21-1.56-2.68-4.56-2.8-7.3,.3-1.61,1.23-2.92,2.27-4.07,7.62-8.48,5.04-24.35-4.17-29.53-1.23-.69-2.3-1.67-2.73-3.14-.32-1.33-.09-2.53,.81-3.58,16.07-.72,32.01-2.66,47.71-6.08,4.62-1.01,6.24-.25,5.7,4.45-.14,1.21-.26,2.57,.93,3.51,1.4,1.52,1.48,3.43,1.49,5.32,.06,10.7,.06,21.41,0,32.11-.01,1.89-.04,3.81-1.46,5.33Z"/>
  <path class="cls-7" d="M100.37,188.33c-13.94,.78-27.74,2.72-41.31,5.91-4.69,1.1-5.74-.28-5.44-4.42,.09-1.22,.25-2.56-.97-3.46-.93-.97-1.32-2.19-1.33-3.47-.03-8.69-.62-17.39,.35-26.06,3.82-4.56,3.75-9.69,2.44-15.13-.53-2.19-1.48-4.63,.57-6.7,7.44,1.3,14.91,2.44,22.3,3.94,9.63,1.95,19.34,2.86,29.16,2.87,1.12,1.33,1.11,2.8,.58,4.35-.69,1.5-2.11,2.28-3.29,3.32-8.25,7.27-9.59,17.99-3.42,27.19,1.13,1.68,2.66,3.15,3.1,5.25-.27,2.41,.45,5.25-2.75,6.41Z"/>
  <path class="cls-15" d="M54.68,135c-.27,3.78,.88,7.38,1.56,11.02,.77,4.13,.47,7.78-3.56,10.18-1.95,2.63-4.71,3.59-7.84,3.81-1.31,.05-2.53-.2-3.61-1-2.57-.15-4.97-.91-7.22-2.09-3.73-1.95-6.18-4.28-5.27-9.3,2.1-11.6,3.67-23.29,5.39-34.96,.64-4.33,3.12-8.69,3.42-12.29,.5-5.95,4.18-11.21,2.88-17.52-.97-4.72-.4-9.76-.52-14.66-2.1-7.35-1.01-14.78-.47-22.19,1.82-.58,3.65-1.16,5.47-1.74,1.44,1.22,.98,2.6,.32,4-.01,7.66-.03,15.32-.04,22.97-.05,6.17-1.13,12.56,.17,18.42,1.01,4.59,.87,9.52,3.44,14.02,2.54,4.46,1.86,10.09,2.94,15.14,1.15,5.36,1.07,10.95,2.93,16.18Z"/>
  <path class="cls-4" d="M63.28,107.41c8.39-5.25,18.07-5.36,27.4-6.58,11.49-1.51,23.11-1.43,34.64-.89,11.8,.55,23.7,1.06,35.11,4.72,2.26,.72,4.56,1.47,5.91,3.68-.52,3.65-3.74,4-6.29,4.77-12.03,3.62-24.51,3.91-36.93,4.61-5.68-.54-11.37-.54-17.05,0-12.36-.75-24.81-.98-36.77-4.65-2.68-.82-6.64-1.01-6.01-5.65Z"/>
  <path class="cls-6" d="M100.37,188.33c1.23-2.01,1.51-4.31,2.04-6.54,2.02-.76,3.77,.28,5.45,1.03,6.53,2.94,12.87,2.99,19.15-.67,1-.58,2.17-1.57,3.4-.26,.78,2.48,.78,5.18,2.2,7.47,1.64,6.17,3.27,12.34,4.92,18.56-.59,.05-.91,.17-1.15,.09-2.94-1.04-5.3-5.37-8.27-3.63-2.26,1.32-2.94,5.32-4.61,8.71-2.15-7.2-4.17-13.95-6.62-22.16-2.42,8.09-4.44,14.85-6.46,21.62-1.41-.74-1.54-2.31-2.25-3.49q-3.72-6.1-9.67-2.27c-.78,.5-1.6,.94-2.96,1.73,.63-7.34,4.24-13.43,4.84-20.19Z"/>
  <path class="cls-3" d="M211.04,58.04c-11.39-4.28-22.76-8.6-34.17-12.82-20.46-7.56-40.94-15.05-61.41-22.57-1.06-1.23-.92-2.45,0-3.67,9.99,2.65,19.44,6.84,29.14,10.33,21.23,7.64,42.41,15.41,63.63,23.08,2.87,1.04,4.93,2.24,2.8,5.65Z"/>
  <path class="cls-13" d="M180.35,186.36c0-14.25-.02-28.51-.03-42.76,3.75-1.48,6.22-.66,6.72,3.72,.7,.89,1.21,1.87,1.38,2.99,1.51,9.79,1.53,19.57,0,29.36-.18,1.12-.69,2.1-1.42,2.97-.19,4.86-3.65,3.88-6.65,3.72Z"/>
  <path class="cls-16" d="M115.46,18.98c0,1.22,0,2.45,0,3.67-14.57,5.15-29.16,10.21-43.69,15.48-8.9,3.22-17.69,6.75-26.53,10.14-.11-1.33-.22-2.66-.32-4,14.78-5.56,29.55-11.17,44.36-16.67,7.92-2.94,15.89-5.73,23.86-8.54,.7-.25,1.55-.06,2.33-.08Z"/>
  <path class="cls-11" d="M39.45,46.01c1.19,7.37,.33,14.79,.47,22.19-7.08-3.18-14.26-6.17-20.94-10.16,1.61-3.02,4.89-3.1,7.55-4.26,4.5-1.97,9.87-2.38,12.85-7.09-.13-.24-.11-.46,.07-.67Z"/>
  <path class="cls-13" d="M45.06,159.02c2.81-.23,5.07-1.93,7.62-2.82-.01,10.05-.02,20.1-.04,30.15-3.89,.91-6.12-.64-6.74-4.56-2.88-7.49-3.48-15.07-.84-22.77Z"/>
  <path class="cls-9" d="M187,182.64c1.35-11.77,1.25-23.55,.04-35.32,2.15,.02,3.46,.71,3.79,3.21,1.25,9.43,1.52,18.82-.03,28.24-.37,2.26-1.11,3.97-3.79,3.87Z"/>
  <path class="cls-10" d="M39.37,46.68c.36,2.82-.9,4.13-3.64,5.03-5.67,1.85-11.18,4.19-16.76,6.32-1.65-3.11-.6-4.92,2.7-5.73,6.02-1.47,11.39-5.01,17.7-5.63Z"/>
  <path class="cls-2" d="M45.06,159.02c-.32,7.61,.32,15.19,.85,22.77-2.76,.68-3.31-.93-3.73-3.21-1.19-6.49-.8-13.04-.94-19.57,1.27,0,2.55,0,3.82,0Z"/>
  <path class="cls-8" d="M125.98,141.72c.05,1.32,.09,2.63,.14,3.95-.83,.63-1.8,.67-2.7,.4-4.03-1.21-8.05-1.09-12.1-.09-1.21,.3-2.5,.42-3.64-.41-.83-1.34-.77-2.6,.33-3.76,5.99-.03,11.98-.06,17.97-.1Z"/>
  <path class="cls-5" d="M106.07,117.72c5.68-1.27,11.37-1.27,17.05,0-5.68,0-11.37,0-17.05,0Z"/>
  <path class="cls-12" d="M108.01,141.82c-.02,1.21-.03,2.42-.05,3.62,0,1.69-.82,1.55-1.9,.87,.03-1.5,.05-3,.08-4.5,.62,0,1.25,0,1.87,.01Z"/>
  <path class="cls-1" d="M106.06,146.31c.8,.07,1.48-.11,1.9-.87,6.08-1.86,12.14-2.3,18.16,.23,8.89,5.26,12.67,12.92,11.41,23.25-.65,5.39-4.08,9.01-7.12,12.96-9.36,5.99-18.69,5.25-28-.1-7.34-8.15-10.27-17.05-4.67-27.41,1.93-3.57,4.76-6.19,8.32-8.06Z"/>
  <path class="cls-15" d="M128.95,154.05c6.46,7.54,5.48,14.36,1.41,20.66-3.74,5.78-12.29,8.25-18.88,5.81-4.85-1.79-9.16-4.19-11.1-9.4,.17-.27,.4-.58,.35-.85-1.48-7.81,.75-13.98,7.98-17.87,7.09-3.82,13.86-3.33,20.25,1.66Z"/>
  <path class="cls-17" d="M128.95,154.05c-6.81-3.43-13.56-4.35-20.47-.1-5,3.08-7.68,7.21-7.25,13.2,.09,1.34,.46,2.87-.85,3.96-2.23-7.71,.64-16.7,6.28-19.69,8.85-4.69,16.68-3.77,22.3,2.62Z"/>
</svg>