<?xml version="1.0" encoding="UTF-8"?>
<svg id="Layer_1" data-name="Layer 1" xmlns="http://www.w3.org/2000/svg" viewBox="0 0 229.28 232.02">
  <path d="M51.11,217.51c-3.32-1.08-5.99-2.88-7.1-6.42-.45-1.43-.53-2.9-.53-4.38,0-17.31-.04-34.62,.06-51.93,.01-2.11-.63-2.66-2.56-2.43-1.14,.13-2.32,.06-3.47-.01-2.82-.19-4.59-2.4-4.06-5.17,2.05-10.72,4.15-21.43,6.23-32.15,1.47-7.56,2.93-15.13,4.38-22.7,.06-.31,0-.63,0-1.52-2.16,5.98-4.13,11.44-6.1,16.91-2.94,8.14-5.83,16.3-8.84,24.41-1.69,4.54-6.09,6.47-10.26,4.71-3.95-1.67-5.65-5.72-4.1-10.11,3.41-9.61,6.88-19.19,10.34-28.78,2.96-8.2,5.82-16.44,8.94-24.58,1.88-4.9,4.89-9.03,9.88-11.33,2.01-.93,4.13-1.38,6.34-1.38,9.14,0,18.27-.02,27.41,0,5.91,.01,10.39,3.02,14.21,7.13,7.01,7.54,13.46,15.57,19.95,23.55,3.9,4.79,1.87,10.98-4.07,12.61-7.67,2.1-15.39,4.04-23.11,5.95-4.1,1.01-8.12-1.4-9.2-5.3-1.13-4.08,1.02-8.19,5.15-9.45,3.44-1.04,6.94-1.85,10.42-2.75,.44-.11,.89-.14,1.33-.65-3.68-4.25-7.25-8.65-11.12-12.76-2.03-2.16-4.89-2.27-7.54-1.12-3.71,1.61-7.04,3.96-10.55,5.96-2.06,1.17-4.14,2.33-6.15,3.6-4.01,2.54-5.21,6.91-2.85,11.04,4.68,8.19,9.45,16.33,14.3,24.42,2.35,3.92,6.69,5.07,10.71,2.89,1.39-.75,1.79-.35,2.43,.76,1.9,3.3,4.67,5.08,8.61,4.45,.92-.15,1.25,.15,1.41,1.02,.93,5.05,1.94,10.09,2.85,15.14,.52,2.9-1.26,5.05-4.22,5.18-1.41,.06-2.84,.1-4.24,0-1.31-.1-1.62,.39-1.6,1.64,.06,5.34,.03,10.68,.03,16.02,0,11.9-.16,23.81,.07,35.71,.11,5.83-1.78,9.92-7.52,11.79h-3.48c-5.49-1.07-7.92-4.05-7.93-9.81-.02-16.97,0-33.94,0-50.91,0-.71,0-1.41-.03-2.12-.05-1-.33-1.77-1.55-1.74-1.12,.02-1.38,.74-1.43,1.66-.05,.77-.03,1.54-.03,2.31,0,16.91-.01,33.81,.01,50.72,0,2.4-.53,4.55-1.96,6.51-1.59,2.19-3.76,3.18-6.38,3.38h-3.09Z"/>
  <path d="M150.3,117.65c1.54,.29,2.91,.57,4.29,.8,3.69,.61,7.17,.03,10.36-1.97,.75-.47,1.47-.61,2.36-.55,3.39,.25,6.02-1.14,7.74-4.05,4.73-8.01,9.46-16.03,14.09-24.1,2.48-4.32,1.32-8.7-2.95-11.3-4.94-3-9.93-5.9-14.95-8.77-4.56-2.61-8.96-1.39-11.67,3.2-.68,1.16-1.13,1.55-2.57,.78-4.26-2.28-8.94-.62-11.01,3.73-2.54,5.33-5.01,10.68-7.6,16.21,4.02,.89,7.95,1.76,11.89,2.61,2.57,.56,5.15,1.09,7.73,1.64,4.88,1.03,7.77,4.91,6.92,9.25-.91,4.62-5.08,7.18-10.12,6.11-9.11-1.93-18.2-3.92-27.3-5.89-.75-.16-1.51-.32-2.25-.54-4.91-1.45-7.37-6.1-5.28-10.74,3.85-8.53,7.78-17.04,12.05-25.36,3.9-7.59,10.55-11.19,19.02-11.24,13.38-.07,26.77-.08,40.15,0,9.46,.06,16.12,5.11,18.72,13.92,.44,1.49,.63,3.03,.64,4.56,.14,18.98,.25,37.97,.33,56.95,.02,4.11-2.3,7.23-5.81,8.13-5.08,1.3-9.71-2.24-9.89-7.66-.11-3.41-.04-6.82-.05-10.23-.08-15.25-.16-30.5-.25-45.75,0-.45,0-.9-.03-1.35-.04-.9-.49-1.48-1.4-1.54-1.02-.06-1.54,.57-1.65,1.51-.08,.7-.04,1.41-.04,2.12,0,42.73-.02,85.46,0,128.18,0,2.86-.45,5.48-2.46,7.67-2.56,2.79-6.47,3.84-10.04,2.5-3.7-1.39-5.82-4.07-6.18-8.06-.08-.89-.08-1.8-.08-2.7,0-23.74,0-47.49-.02-71.23,0-.63,.44-1.66-.41-1.84-1.1-.24-2.3-.13-3.43,.03-.44,.06-.23,.79-.23,1.22-.02,2.32,0,4.63,0,6.95,0,22.01,0,44.02,0,66.02,0,5.35-2.93,9.11-7.72,10.03-5.22,1-10.32-2.76-10.9-8.06-.09-.83-.15-1.67-.15-2.5,.04-28.96,.1-57.91,.15-86.87,0-.57,0-1.14,0-1.82Z"/>
  <path d="M63.95,54.95c-9.21-.02-16.76-7.63-16.73-16.84,.03-9.2,7.7-16.83,16.83-16.77,9.17,.06,16.83,7.77,16.76,16.87-.06,9.2-7.68,16.76-16.87,16.74Z"/>
  <path d="M187.16,36.26c-.25,9.1-7.66,16.24-16.57,15.97-8.85-.27-16.06-7.71-15.85-16.34,.23-9.07,7.69-16.35,16.51-16.08,8.97,.27,16.15,7.69,15.91,16.45Z"/>
  <path d="M75.32,121.3c-1.04-.08-1.74-.61-2.21-1.42-4.7-8.02-9.41-16.03-14.09-24.06-.85-1.47-.51-2.78,.93-3.63,5.01-2.98,10.04-5.95,15.11-8.83,1.93-1.1,4.21,.2,4.67,2.43,.17,.79-.45,.83-.83,1.05-2.47,1.48-4.97,2.92-7.46,4.39-5.14,3.03-6.26,7.32-3.23,12.52,2.9,4.99,5.84,9.95,8.72,14.95,.28,.49,1.11,1,.57,1.64-.53,.63-1.39,.89-2.18,.98Z"/>
  <path d="M168.25,93.6c-4.11-4.73-10.02-4.82-15.44-6.19-1.8-.45-3.62-.83-5.45-1.16-.79-.14-1.24-.29-.7-1.19,1.51-2.53,2.94-5.11,4.5-7.6,.78-1.25,2.02-1.61,3.34-.85,5.16,2.98,10.3,5.99,15.42,9.03,1.46,.87,1.67,2.2,.85,3.65-.78,1.39-1.62,2.76-2.53,4.3Z"/>
  <path d="M81.45,115.33c5.41,.01,10.03-1.98,14.84-3.02,2.32-.5,4.67-.98,6.87-1.83,2.16-.83,2.47,.75,3.16,1.94,.77,1.31,.78,2.56-.51,3.61-.15,.12-.31,.23-.47,.33-4.98,2.92-9.96,5.84-14.95,8.75-1.36,.79-2.68,.72-3.54-.66-1.82-2.92-3.52-5.92-5.39-9.11Z"/>
  <path d="M172.15,105.3c.18-1.8,.08-3.57-.45-5.29-.24-.78,.06-1.35,.43-1.97,1.18-1.98,2.38-3.96,3.5-5.98,2.38-4.33,1.23-8.68-3-11.29-2.45-1.52-5-2.89-7.43-4.43-.57-.36-2.1-.27-1.36-1.69,.74-1.42,1.44-3.02,3.53-2.6,.55,.11,1.06,.45,1.56,.74,4.6,2.68,9.19,5.37,13.78,8.07,2.34,1.38,2.64,2.4,1.31,4.68-3.64,6.26-7.3,12.52-10.97,18.77-.22,.37-.35,.85-.89,1Z"/>
</svg>