<?xml version="1.0" encoding="UTF-8"?>
<svg id="Layer_1" data-name="Layer 1" xmlns="http://www.w3.org/2000/svg" viewBox="0 0 226.43 232.02">
  <defs>
    <style>
      .cls-1 {
        fill: #272927;
      }

      .cls-2 {
        fill: #282a28;
      }

      .cls-3 {
        fill: #fefefe;
      }
    </style>
  </defs>
  <path class="cls-1" d="M114.92,11.6c60.16,1.38,101.17,48.85,102.98,98.92,2.49,68.94-52.07,108.96-100.86,109.91-66.87,1.3-107.4-51.27-108.57-101.04C6.98,55.52,59.32,10.19,114.92,11.6Z"/>
  <path class="cls-3" d="M113.69,49.99c14.77,0,29.55-.24,44.32,.11,6.72,.16,13.21,1.9,17.47,7.98,2.64,3.77,3.38,8.1,3.76,12.52,.65,7.62-1.26,14.87-4.78,21.37-5.35,9.9-12.62,18.27-23.34,22.88-2.32,1-4.84,1.39-7.39,1.28-1.64-.07-3.07,.33-4.21,1.56-3.09,3.33-6.5,6.29-10.66,8.18-3.48,1.58-1.45,4.55-1.94,6.85-.38,1.74,.67,2.73,2.34,3.44,2.34,1,3.8,2.93,3.96,5.55,.16,2.71-1,4.72-3.42,6.11-2.78,1.6-3.77,4.39-2.81,7.42,.34,1.06,1.1,1.59,2.27,1.95,6.31,1.95,12.2,4.7,16.86,9.58,.98,1.03,2.23,1,3.51,1.06,3.48,.18,6.98-.39,10.44,.4,3.83,.87,6.47,3.99,6.06,7.14-.46,3.59-3.82,6.58-7.61,6.59-12.54,.05-25.08,.06-37.61,.06-17.49,0-34.99-.03-52.48-.03-3.08,0-5.38-1.29-6.91-3.93-2.3-3.95-.36-8.44,4.1-9.69,3.15-.88,6.36-.54,9.55-.56,2.43-.01,4.44-.26,6.5-2.24,4.26-4.1,9.6-6.7,15.31-8.36,1.47-.43,2.92-1.14,2.59-2.57-.47-2.05,1.69-4.78-1.78-6.19-2.82-1.15-4.71-3.42-4.41-6.77,.27-2.98,1.99-4.93,4.78-5.9,1.1-.38,1.6-1.19,1.52-2.17-.16-2.02-.34-4.01-.22-6.05,.09-1.56-1.54-1.78-2.42-2.15-3.77-1.58-6.59-4.3-9.35-7.13-1.2-1.24-2.52-2.11-4.31-2.1-7.72,0-13.78-3.77-19.23-8.68-5.85-5.27-10.45-11.53-13.54-18.79-3.53-8.31-4.75-16.98-2.01-25.7,1.85-5.88,5.84-10,12.21-11.61,4.29-1.08,8.55-1.5,12.94-1.47,13.31,.08,26.63,.03,39.95,.03h0Z"/>
  <path class="cls-2" d="M165.29,72.49c.06,9.15-4.06,16.49-10.01,23.04-.18,.2-.41,.36-.6,.57-.9,1-1.53,3.12-2.97,2.39-.94-.48,.43-2.33,.81-3.54,2-6.38,3.58-12.85,4.55-19.48,.46-3.13,1.42-6.2,1.27-9.41-.08-1.83,1-2.09,2.46-1.83,2.98,.53,4.34,2.07,4.48,5.08,.05,1.06,0,2.13,0,3.19Z"/>
  <path class="cls-2" d="M66.34,64.19c1.43-.08,1.82,.79,1.89,2.01,.56,8.66,2.54,17.07,4.68,25.44,.47,1.85,1.21,3.63,1.87,5.42,.2,.53,.71,1.08,.1,1.53-.61,.46-1.03-.16-1.42-.56-7.8-8.08-13.24-17.1-12.17-28.95,.29-3.15,1.96-4.39,5.03-4.88Z"/>
</svg>