<?xml version="1.0" encoding="UTF-8"?>
<svg id="Layer_1" data-name="Layer 1" xmlns="http://www.w3.org/2000/svg" viewBox="0 0 226.43 232.02">
  <defs>
    <style>
      .cls-1 {
        fill: #fafafa;
      }

      .cls-2 {
        fill: #3e3e3e;
      }

      .cls-3 {
        fill: #020202;
      }

      .cls-4 {
        fill: #fbfbfb;
      }

      .cls-5 {
        fill: #f9f9f9;
      }

      .cls-6 {
        fill: #f2f2f2;
      }

      .cls-7 {
        fill: #fefefe;
      }

      .cls-8 {
        fill: #fcfcfc;
      }
    </style>
  </defs>
  <path d="M216.34,81.34v99c-.5,4.86-2.33,9.17-5.42,12.94-5.54,6.76-12.8,10.11-21.43,10.15-26.76,.1-53.51,.04-80.27,.04-23.94,0-47.88,.16-71.82-.07-11.92-.12-20.71-5.67-25.63-16.82-1.22-2.76-1.66-5.65-1.66-8.62-.02-31.65-.03-63.31,0-94.96,.02-13.81,11.92-25.58,25.82-25.59,41.71-.02,83.42,0,125.13,0,.6,0,1.21,0,1.81,0,2.06-.03,3.91-2.25,3.52-4.26-.19-.98-1.11-1.09-1.82-1.37-5.79-2.32-11.58-4.64-17.37-6.96-28.08-11.23-56.16-22.46-84.23-33.7-1.4-.56-2.67-.9-4.24-.32-2.05,.77-4.11-.29-4.81-2.13-.64-1.69,.22-3.66,1.99-4.54,1.84-.92,3.85-.29,4.9,1.77,.64,1.25,1.57,1.92,2.81,2.37,19.28,7.02,38.53,14.12,57.8,21.16,15.68,5.73,31.35,11.49,47.02,17.26,1.97,.72,3.76,.93,5.84,.3,5.82-1.78,12.02,1.77,13.96,7.78q.85,2.65,3.57,2.65c4.49,0,8.99,.12,13.48-.03,6.59-.21,9.24,3.47,10.43,8.94,.44,2.02,.24,4.12,.63,6.16v.8c-.34,2.68-.34,5.37,0,8.05Z"/>
  <path class="cls-2" d="M216.34,81.34c-.55-2.68-.81-5.37,0-8.05v8.05Z"/>
  <path class="cls-7" d="M77.1,70.4c12.27,0,24.55,.17,36.82-.07,7.06-.13,12.75,4.68,12.63,12.66-.14,9.39-.02,18.78-.04,28.17-.01,7.84-4.66,12.47-12.52,12.47-24.55,0-49.1-.11-73.64,.07-6.65,.05-12.71-4.34-12.6-12.47,.12-9.52,0-19.05,.04-28.57,.03-6.24,3.17-10.49,8.69-11.96,1.32-.35,2.66-.3,3.99-.3,12.21,0,24.41,0,36.62,0Z"/>
  <path class="cls-7" d="M177.68,124.45c-10.45-.02-19.02-8.55-19.12-19.04-.1-10.39,8.76-19.26,19.18-19.22,10.41,.05,18.98,8.59,19.13,19.07,.15,10.37-8.68,19.2-19.19,19.18Z"/>
  <path class="cls-7" d="M177.89,130.08c7.5,0,15,.04,22.51-.03,1.38-.01,1.86,.32,1.79,1.76-.12,2.61-.07,5.22-.01,7.84,.02,1.05-.17,1.56-1.4,1.55-15.34-.04-30.68-.03-46.02,0-.99,0-1.26-.33-1.24-1.27,.05-2.75,.1-5.5-.02-8.24-.05-1.36,.4-1.64,1.68-1.63,7.57,.06,15.14,.03,22.71,.03Z"/>
  <path class="cls-7" d="M160.59,152.05c7.08-.04,12.97,5.82,12.96,12.87-.01,7.04-5.99,13-12.97,12.92-7.03-.08-12.72-5.78-12.81-12.83-.09-7.07,5.7-12.92,12.83-12.96Z"/>
  <path class="cls-7" d="M196.84,152.05c7.08-.03,12.98,5.85,12.94,12.89-.03,7.05-6.02,13-12.99,12.9-7.04-.1-12.73-5.81-12.79-12.85-.07-7.09,5.71-12.92,12.84-12.94Z"/>
  <path class="cls-7" d="M75.68,138.9c-17.89,0-35.79,0-53.68,0-.6,0-1.21,.04-1.81-.03-1.07-.13-1.75-.8-1.74-1.86,0-1.05,.65-1.73,1.77-1.8,.6-.04,1.21-.04,1.81-.04,35.92,0,71.84,0,107.76,0,1.49,0,3.53-.4,3.51,1.86-.02,2.2-2.01,1.87-3.53,1.87-18.03,0-36.06,0-54.08,0Z"/>
  <path class="cls-7" d="M116.12,166.01c0,6.5,.03,12.99-.01,19.49-.02,3.37-2.74,5.34-5.42,3.99-1.79-.9-2.17-2.56-2.17-4.4,.01-7.43,0-14.87,0-22.3,0-5.36,0-10.71,0-16.07,0-1.38,.21-2.69,1.26-3.68,1.13-1.07,2.52-1.29,3.92-.74,1.68,.66,2.4,2.08,2.41,3.83,.03,4.42,.01,8.84,.01,13.26,0,2.21,0,4.42,0,6.63Z"/>
  <path class="cls-7" d="M31.97,165.94c0-6.63,0-13.26,0-19.89,0-1.97,.88-3.39,2.81-3.88,1.81-.46,3.29,.19,4.23,1.87,.41,.72,.48,1.53,.48,2.33,.01,13.06,.03,26.12,0,39.18,0,2.67-1.55,4.34-3.73,4.37-2.25,.04-3.76-1.71-3.77-4.49-.02-6.5,0-12.99,0-19.49Z"/>
  <path class="cls-7" d="M58.62,165.94c0,6.56,.02,13.13-.01,19.69-.01,2.58-1.6,4.32-3.79,4.3-2.06-.02-3.59-1.7-3.76-4.17-.04-.53-.01-1.07-.01-1.61,0-9.71,0-19.42,0-29.13,0-2.88-.04-5.76,.01-8.64,.05-2.36,1.15-3.87,2.93-4.24,2.59-.55,4.59,1.17,4.61,4.12,.04,6.56,.01,13.13,.01,19.69Z"/>
  <path class="cls-7" d="M68.23,165.84c0,6.56,.03,13.12-.01,19.69-.02,3.36-2.78,5.33-5.44,3.95-1.78-.92-2.14-2.58-2.14-4.42,.02-9.58,0-19.15,0-28.73,0-3.35-.05-6.7,.02-10.04,.06-2.96,2.03-4.68,4.61-4.16,1.86,.38,2.94,1.95,2.95,4.43,.02,6.43,0,12.86,0,19.28Z"/>
  <path class="cls-7" d="M79.85,165.94c0-6.5,.01-12.99-.01-19.49,0-1.65,.41-3.03,1.91-3.92,2.08-1.23,4.84-.1,5.39,2.27,.2,.84,.23,1.72,.23,2.59,.01,12.39,0,24.78,0,37.16,0,.54,.02,1.08-.04,1.6-.26,2.29-1.92,3.87-3.91,3.76-2.09-.12-3.54-1.7-3.56-4.09-.04-6.63-.01-13.26-.02-19.89Z"/>
  <path class="cls-7" d="M106.51,165.98c0,6.29,0,12.59,0,18.88,0,.67,.03,1.35-.11,2-.4,1.88-1.7,2.84-3.52,3.03-1.63,.17-3.24-1.1-3.66-2.81-.17-.7-.26-1.45-.26-2.18-.02-12.66,0-25.31-.02-37.97,0-.95,.09-1.89,.43-2.76,.62-1.54,2.42-2.38,4.16-2.06,1.78,.33,2.96,1.8,2.97,3.97,.04,6.63,.01,13.26,.01,19.89Z"/>
  <path class="cls-7" d="M118.15,166.01c0-6.56-.02-13.12,0-19.69,.01-2.84,1.66-4.47,4.15-4.25,2.05,.18,3.33,1.71,3.4,4.23,.07,2.41,.02,4.82,.02,7.23,0,10.25,0,20.49,0,30.74,0,.54,.03,1.07-.01,1.61-.2,2.41-1.83,4.1-3.88,4.04-2.12-.07-3.65-1.75-3.66-4.22-.03-6.56-.01-13.12-.01-19.69Z"/>
  <path class="cls-7" d="M70.25,166c0-6.56-.02-13.12,0-19.69,.01-2.91,1.8-4.58,4.36-4.21,1.93,.27,3.13,1.79,3.19,4.21,.06,2.27,.01,4.55,.01,6.83,0,10.38,0,20.76,0,31.14,0,.54,.03,1.07-.01,1.61-.21,2.41-1.85,4.1-3.9,4.02-2.13-.08-3.64-1.74-3.65-4.23-.04-6.56-.01-13.12-.01-19.69Z"/>
  <path class="cls-7" d="M49.02,165.85c0,6.56,.02,13.12-.01,19.69,0,2.44-.94,3.71-2.9,4.2-1.98,.5-3.98-.71-4.41-2.71-.14-.65-.16-1.33-.16-2,0-12.72-.01-25.45,0-38.17,0-3.03,1.16-4.61,3.4-4.79,2.42-.19,4.05,1.37,4.07,4.09,.05,6.23,.02,12.46,.02,18.68,0,.33,0,.67,0,1Z"/>
  <path class="cls-7" d="M96.91,166.13c0,6.5,.03,12.99-.01,19.49-.02,3.14-2.29,4.95-4.92,4.03-1.37-.48-2.26-1.41-2.42-2.9-.1-.93-.13-1.87-.13-2.8,0-12.12,0-24.24,0-36.36,0-.54-.02-1.07,.02-1.61,.17-2.5,1.64-3.99,3.86-3.93,2.12,.06,3.57,1.57,3.59,3.99,.05,6.7,.02,13.39,.02,20.09Z"/>
  <path class="cls-5" d="M175.81,77.23c0-.93-.07-1.87,.02-2.79,.11-1.12,.76-1.89,1.94-1.87,1.07,.02,1.76,.75,1.81,1.78,.1,1.99,.11,3.99,.01,5.98-.05,1.09-.7,1.87-1.94,1.84-1.24-.03-1.75-.86-1.84-1.95-.08-.99-.02-1.99-.02-2.99,0,0,.01,0,.02,0Z"/>
  <path class="cls-4" d="M205.27,106.96c-1.07-.07-2.14-.13-3.21-.22-1.1-.09-1.77-.74-1.78-1.8,0-1.16,.7-1.89,1.9-1.87,2.01,.03,4.01,.12,6.02,.25,1.16,.07,1.93,.74,1.86,1.93-.07,1.27-.93,1.84-2.19,1.83-.87,0-1.74,0-2.61,0,0-.04,0-.08,0-.12Z"/>
  <path class="cls-8" d="M150.1,107.06c-.94,0-1.88,.08-2.81-.02-1.04-.12-1.75-.75-1.75-1.85,0-.99,.56-1.64,1.55-1.8,2.19-.35,4.4-.34,6.61-.3,1.03,.02,1.59,.75,1.63,1.7,.05,1.06-.53,1.8-1.63,1.92-1.2,.14-2.4,.18-3.61,.27,0,.03,0,.05,0,.08Z"/>
  <path class="cls-8" d="M189.37,85.75c-1.62,.06-2.61-1.54-1.73-2.82,1.21-1.76,2.62-3.39,4.03-5,.58-.67,1.41-.71,2.2-.21,.8,.5,1.12,1.37,.73,2.08-1.2,2.17-2.78,4.07-4.62,5.74-.18,.16-.49,.18-.6,.22Z"/>
  <path class="cls-8" d="M162.73,77.39c1.28-.02,5.84,5.51,5.6,6.8-.27,1.45-2.03,2.15-3.07,1.05-1.5-1.59-2.87-3.33-4.09-5.14-.79-1.16,.2-2.68,1.56-2.7Z"/>
  <path class="cls-8" d="M173.84,81.18c-.02,1.14-.34,1.8-1.11,2.09-.72,.27-1.54,.27-2-.44-1.33-2.02-2.19-4.26-2.86-6.56-.23-.8,.31-1.54,1.19-1.86,.79-.29,1.44-.06,2.01,.5,.44,.44,2.77,6.04,2.77,6.28Z"/>
  <path class="cls-8" d="M187.71,76.94c-.75,1.63-1.63,3.72-2.67,5.72-.46,.89-1.44,.98-2.3,.53-.78-.41-1.23-1.18-.9-2.03,.8-2.05,1.67-4.08,2.64-6.05,.43-.88,1.35-1.06,2.26-.64,.83,.38,1.15,1.07,.97,2.46Z"/>
  <path class="cls-8" d="M158.79,93.14c.02,1.55-1.41,2.52-2.7,1.76-1.84-1.07-3.53-2.39-5.24-3.68-.73-.55-.76-1.42-.37-2.19,.4-.8,1.21-1.25,2.01-.88,2.25,1.03,4.19,2.55,6,4.23,.21,.2,.24,.6,.3,.75Z"/>
  <path class="cls-8" d="M205.43,89.98c-.09,.22-.13,.69-.39,.93-1.78,1.61-3.67,3.09-5.85,4.11-.81,.38-1.63,.02-2.06-.77-.41-.75-.43-1.64,.3-2.2,1.75-1.33,3.5-2.69,5.38-3.8,1.16-.69,2.56,.28,2.63,1.73Z"/>
  <path class="cls-8" d="M162.82,87.29c.06,.92-.28,1.47-.9,1.84-.71,.42-1.44,.4-2.05-.14-1.45-1.28-2.9-2.58-4.27-3.95-.69-.69-.7-1.57-.09-2.37,.55-.73,1.38-1.02,2.13-.54,1.93,1.23,3.49,2.89,5.02,4.57,.16,.17,.15,.5,.17,.59Z"/>
  <path class="cls-8" d="M194.89,89.39c-.96,.03-1.55-.36-1.9-1.07-.37-.73-.25-1.47,.31-2.02,1.37-1.35,2.76-2.69,4.23-3.94,.8-.69,1.76-.6,2.51,.17,.61,.62,.85,1.46,.24,2.17-1.42,1.67-3.04,3.15-4.79,4.47-.2,.15-.48,.18-.6,.22Z"/>
  <path class="cls-4" d="M149.31,95.72c1.75,.41,3.51,.78,5.25,1.24,1.05,.27,1.59,1.05,1.37,2.12-.24,1.15-1.09,1.71-2.23,1.51-1.7-.31-3.39-.71-5.07-1.15-1.11-.29-1.73-1.08-1.46-2.25,.25-1.06,1.04-1.49,2.14-1.46Z"/>
  <path class="cls-1" d="M201.76,100.65c-1.02-.1-1.71-.45-1.96-1.34-.26-.94-.05-1.85,.88-2.19,1.94-.7,3.96-1.15,6.03-1.33,.91-.08,1.51,.46,1.74,1.34,.26,.99-.13,1.85-1.02,2.13-1.9,.59-3.87,.96-5.67,1.39Z"/>
  <path class="cls-6" d="M203.71,132.22c1.63,1.17,3.06,2.19,4.71,3.37-1.56,1.16-3.02,2.24-4.71,3.48v-6.85Z"/>
  <path class="cls-6" d="M152.12,138.93c-1.7-1.02-3.17-2.09-4.64-3.38,1.55-1.11,2.98-2.15,4.64-3.35v6.73Z"/>
  <path class="cls-3" d="M77.5,95.1c13.34,0,26.69,0,40.03,0,.6,0,1.21-.03,1.81,.03,1.13,.12,1.94,.75,1.92,1.92-.02,1.19-.86,1.75-1.98,1.87-.53,.05-1.07,.02-1.61,.02-26.69,0-53.37,0-80.06,0-.34,0-.67,0-1.01,0-1.36-.01-2.71-.22-2.68-1.96,.03-1.73,1.39-1.89,2.75-1.89,13.61,0,27.22,0,40.83,0Z"/>
</svg>