<?xml version="1.0" encoding="UTF-8"?>
<svg id="Layer_1" data-name="Layer 1" xmlns="http://www.w3.org/2000/svg" viewBox="0 0 226.43 232.02">
  <defs>
    <style>
      .cls-1 {
        fill: #fefefe;
      }
    </style>
  </defs>
  <path d="M162.4,21.15c1.57,1.04,3.5,.62,5.26,1.71,3.87,2.38,5.31,5.75,5.39,9.87,.14,7.45,0,14.91,.07,22.37,.01,1.35-.39,1.72-1.7,1.67-2.8-.1-5.6-.11-8.4,0-1.38,.05-1.68-.42-1.67-1.71,.06-6.78-.03-13.56,.07-20.33,.02-1.62-.46-1.92-1.98-1.92-30.46,.05-60.92,.05-91.38,0-1.61,0-1.93,.44-1.93,1.97,.05,34.32,.05,68.63,0,102.95,0,1.6,.43,1.93,1.97,1.93,30.46-.05,60.92-.05,91.38,0,1.6,0,1.95-.41,1.94-1.96-.07-10.51,.01-21.01-.08-31.52-.02-1.81,.46-2.3,2.23-2.19,2.62,.16,5.26,.12,7.89,0,1.39-.06,1.66,.43,1.66,1.72-.03,23.3,0,46.6-.03,69.9,0,7.14-5.22,11.26-11.57,11.27-19.09,.05-38.18,.05-57.27-.03-1.97,0-2.52,.45-2.48,2.46,.14,6.91,.05,13.83,.05,21.56-3.81-3.89-7.19-7.25-10.46-10.71-2.02-2.14-4.29-4.04-6.09-6.4-.54-.71-1.49-.63-2.12,.06-4.89,5.37-10.22,10.3-15.35,15.43-.39,.39-.53,1.19-1.24,.96-.76-.25-.36-1.02-.36-1.54-.03-6.52-.08-13.05,.02-19.57,.03-1.74-.35-2.27-2.18-2.24-7.55,.12-15.11,.21-22.65,0-5.41-.16-10.35-4.38-10.35-10.2,0-48.38,.04-96.76-.05-145.14,0-4.57,5.1-10.03,9.16-9.91,.51,.02,1.22,.26,1.59-.44h120.67Z"/>
  <path d="M185.32,115.58c0-7.3-.14-13.98,.07-20.65,.08-2.41-.77-2.65-2.83-2.64-21.97,.07-43.94,0-65.91,.11-2.35,.01-2.72-.69-2.67-2.79,.14-6.26,.16-12.54,0-18.8-.05-2.1,.67-2.41,2.54-2.41,22.14,.06,44.28,0,66.42,.09,2.06,0,2.47-.59,2.43-2.5-.12-6.74-.05-13.48-.05-21.02,6.35,6.42,12.19,12.35,18.05,18.25,5.3,5.33,10.64,10.63,15.95,15.95,.6,.6,1.53,.99,.38,2.13-11.36,11.26-22.66,22.58-34.39,34.3Z"/>
  <path d="M78.39,74.06c.17-1.57-.84-4.08,.37-5.26,1.19-1.17,3.7-.33,5.62-.35,5.72-.04,5.76-.01,5.7,5.71-.02,2.09,.89,4.77-.37,6.11-1.16,1.23-3.84,.33-5.85,.35-5.47,.05-5.47,.02-5.47-5.45,0-.25,0-.51,0-1.11Z"/>
  <path d="M90.1,122.3c-.17,1.57,.85,4.19-.37,5.23-1.15,.98-3.69,.38-5.61,.38-5.72,.03-5.76,0-5.7-5.72,.02-2.09-.89-4.77,.37-6.11,1.16-1.23,3.85-.33,5.86-.35,5.47-.05,5.47-.02,5.47,5.46,0,.25,0,.51,0,1.11Z"/>
  <path d="M84.41,56.82c-1.93-.09-4.46,.54-5.62-.45-1.23-1.04-.36-3.65-.38-5.57-.05-5.76-.02-5.77,5.67-5.75,1.93,0,4.46-.61,5.62,.37,1.23,1.03,.36,3.64,.38,5.56,.05,5.76,.02,5.76-5.68,5.84Z"/>
  <path d="M84.01,92.33c6.09,0,6.11,0,6.09,5.7,0,1.93,.6,4.46-.38,5.61-1.03,1.21-3.65,.35-5.58,.37-5.75,.04-5.76,.02-5.74-5.68,0-1.93-.6-4.45,.38-5.61,1.04-1.24,3.66-.2,5.23-.38Z"/>
  <path class="cls-1" d="M102.11,151.31c19,0,38,.03,57-.05,1.94,0,2.49,.49,2.3,2.36-.48,4.74,.73,9.55-.96,14.28-1.31,3.69-4.11,5.53-7.37,6.68-1.81,.64-3.92,.67-5.96,.66-14.33-.08-28.67-.08-43,0-1.89,.01-2.49-.4-2.35-2.33,.19-2.61-.01-5.25,.07-7.87,.04-1.22-.32-1.57-1.55-1.56-10.86,.05-21.71,.04-32.57,0-1.2,0-1.61,.3-1.57,1.54,.09,2.88,0,5.76,.04,8.64,0,.93,.02,1.64-1.28,1.56-4.62-.29-9.27,.44-13.88-.5-3.25-.66-7.14-4.32-7.76-7.58-.93-4.85-.31-9.75-.53-14.63-.07-1.64,1.04-1.2,1.87-1.2,7.63-.02,15.27-.01,22.9-.01,11.54,0,23.07,0,34.61,0Z"/>
</svg>