<?xml version="1.0" encoding="UTF-8"?>
<svg id="Layer_1" data-name="Layer 1" xmlns="http://www.w3.org/2000/svg" viewBox="0 0 226.43 232.02">
  <defs>
    <style>
      .cls-1 {
        fill: #11232f;
      }

      .cls-2 {
        fill: #12232f;
      }

      .cls-3 {
        fill: #122430;
      }
    </style>
  </defs>
  <path class="cls-1" d="M73.63,150.37c.06-10.4,10.64-18.83,4.9-29.56-1.2-2.25,2.31-6.14,5.73-6.08,3.3,.06,7.01,3.65,5.67,6.12-5.91,10.94,4.96,19.1,5.11,29.37,2.68-11.02,6.11-21.93,7.8-33.1,1.42-9.4,5.25-9.09,12.7-6.73,31.79,10.11,36.33,16.16,38.44,54.13,1.86,33.49,1.35,33.15-31.88,36.01-32.36,2.79-64.35,1.93-96.46-2.76-9.71-1.42-12.61-5.17-11.62-14.37,1.08-10.05,1.99-20.21,1.84-30.3-.41-26.98,15.4-38.1,38.95-43.26,6.65-1.46,9.24-1.56,10.58,5.91,2.1,11.66,5.43,23.09,8.24,34.62Z"/>
  <path class="cls-3" d="M155.77,118.96c-14.04-4.79-15.9-19.9-27.67-24.79-1.28-.53-3.19-2.32-3.02-3.17,3.22-16.61-2.02-34.39,6.32-50.18,4.48-8.48,12.74-10.77,21.69-10.2,8.43,.54,15.54,4.1,19.13,12.14,6.75,15.1,6.05,32.49,3.76,47-1.36,8.62-15.32,18.03-20.2,29.2Z"/>
  <path class="cls-2" d="M83.79,26.81c14.3,.17,20.75,11.22,26.08,23.74,8.86,20.86-9.32,33.12-11.11,50.18-.51,4.81-9.79,8.78-15.91,7.29-5.91-1.44-13.9-2.44-14.75-11.71-.73-8.02-6.18-13.72-9.73-20.39-6.53-12.28,1.27-25.98,4.43-38.5,2.2-8.71,12-10.93,21-10.62Z"/>
  <path class="cls-3" d="M186.08,119.45c-4.79-5.68-8.12-9.62-11.5-13.63,29.03,5.9,34.17,11.67,36.75,41.22,3.18,36.41,3.15,35.79-33.68,37.69-11.42,.59-13.45-3.77-13.62-13.26-.14-7.95-.91-15.99-2.36-23.81-4.34-23.46-1.7-27.08,24.41-28.21Z"/>
</svg>